<?xml version="1.0" standalone="no"?>
<!DOCTYPE svg PUBLIC "-//W3C//DTD SVG 20010904//EN"
 "http://www.w3.org/TR/2001/REC-SVG-20010904/DTD/svg10.dtd">
<svg version="1.0" xmlns="http://www.w3.org/2000/svg"
 width="260.000000pt" height="260.000000pt" viewBox="0 0 260.000000 260.000000"
 preserveAspectRatio="xMidYMid meet">
<metadata>
Created by potrace 1.11, written by Peter Selinger 2001-2013
</metadata>
<g transform="translate(0.000000,260.000000) scale(0.100000,-0.100000)"
fill="#000000" stroke="none">
<path d="M0 1300 l0 -1300 1300 0 1300 0 0 1300 0 1300 -1300 0 -1300 0 0
-1300z m1552 1017 c371 -97 655 -380 755 -755 23 -85 26 -116 26 -257 0 -141
-3 -172 -26 -257 -51 -191 -148 -357 -285 -490 -135 -131 -286 -216 -470 -265
-85 -23 -116 -26 -257 -26 -141 0 -172 3 -257 26 -375 100 -655 380 -755 755
-23 85 -26 116 -26 257 0 141 3 172 26 257 108 403 423 695 834 773 116 22
311 14 435 -18z"/>
<path d="M1163 1885 c-260 -57 -463 -311 -463 -580 0 -322 273 -595 595 -595
216 0 424 126 524 319 94 181 94 371 0 552 -123 236 -393 361 -656 304z"/>
</g>
</svg>
