<svg xmlns="http://www.w3.org/2000/svg" xmlns:xlink="http://www.w3.org/1999/xlink" version="1.1" x="0px" y="0px" viewBox="84.999 83.011 30.001 42.47125" enable-background="new 84.999 83.011 30.001 33.977" xml:space="preserve" fill="#ffffff"><path d="M93.921,90.771l1.029,0.247c0.563-2.342,2.64-3.978,5.05-3.978v-1.059C97.099,85.981,94.599,87.95,93.921,90.771z"/><path d="M107.652,106.496h-3.004v-5.045h4.438c3.261,0,5.912-2.651,5.912-5.908c0-3.26-2.651-5.913-5.912-5.913  c-0.078,0-0.157,0.002-0.239,0.006c-1.145-3.923-4.72-6.625-8.849-6.625c-4.126,0-7.703,2.701-8.849,6.625  c-0.081-0.004-0.16-0.006-0.238-0.006c-3.26,0-5.913,2.653-5.913,5.913c0,3.257,2.652,5.908,5.913,5.908h4.44v5.045h-3.005v-3.145  H85v7.348h7.347v-3.145h4.063v-7.163h-5.498c-2.677,0-4.854-2.176-4.854-4.85c0-2.677,2.178-4.855,4.854-4.855  c0.176,0,0.363,0.012,0.573,0.037l0.467,0.055l0.109-0.457c0.885-3.682,4.149-6.254,7.938-6.254c3.79,0,7.053,2.572,7.937,6.253  l0.108,0.456l0.466-0.054c0.215-0.025,0.402-0.037,0.577-0.037c2.677,0,4.854,2.178,4.854,4.854c0,2.674-2.178,4.85-4.854,4.85  h-5.497l-0.001,7.162h4.063v3.146H115v-7.348h-7.348V106.496z M91.29,109.643h-5.231v-5.231h5.231v2.086h-2.615v1.06h2.615V109.643z   M113.941,104.41v5.23h-5.23v-2.086h2.615h0.001v-1.06h-2.616v-2.086L113.941,104.41L113.941,104.41z"/><path d="M100.529,100.393h-1.058v9.25h-3.145v7.346h7.347v-7.346h-3.146v-9.25H100.529z M102.616,110.699v5.23h-5.231v-5.23h2.086  v2.615h1.058v-2.615H102.616z"/><rect x="97.355" y="96.839" width="1.058" height="1.058"/><rect x="99.471" y="96.839" width="1.058" height="1.058"/><rect x="101.588" y="96.839" width="1.059" height="1.058"/><text x="84.999" y="131.988" fill="#0399cd" font-size="5px" font-weight="bold" font-family="'Helvetica Neue', Helvetica, Arial-Unicode, Arial, Sans-serif">Created by Maxim Basinski</text><text x="84.999" y="136.988" fill="#0399cd" font-size="5px" font-weight="bold" font-family="'Helvetica Neue', Helvetica, Arial-Unicode, Arial, Sans-serif">from the Noun Project</text></svg>