<svg xmlns="http://www.w3.org/2000/svg" xmlns:xlink="http://www.w3.org/1999/xlink" version="1.1" x="0px" y="0px" viewBox="0 0 512 640" enable-background="new 0 0 512 512" xml:space="preserve" fill="#ffffff"><g><path d="M362.5,189.9c0-17.3-6-34.2-17-47.5h0c-10-12.2-24.5-20.7-40.9-24.1l-3.5-0.7l-2.9,2c-5.7,4-28.1,31.6-42.3,49.4   c-14.2-17.8-36.6-45.4-42.3-49.4l-2.9-2l-3.5,0.7c-16.4,3.4-30.9,11.9-40.9,24.1c-10.9,13.3-17,30.2-17,47.5v49.7h213V189.9z    M346.1,223.2H165.9v-33.3c0-13.5,4.7-26.7,13.2-37.1c6.8-8.3,16.5-14.4,27.5-17.5c7.3,7.7,26.3,30.9,43,52l6.4,8.1l6.4-8.1   c16.7-21.2,35.7-44.4,42.9-52c11.1,3.1,20.7,9.2,27.5,17.5c8.5,10.4,13.2,23.6,13.2,37.1V223.2z"/><path d="M51.2,329.7c0,31.6,25.7,57.4,57.4,57.4s57.4-25.7,57.4-57.4s-25.7-57.4-57.4-57.4c-18.4,0-34.7,8.7-45.2,22.2   c-2.5-12.7-3.9-25.6-3.9-38.6c0-87.4,57.1-163.4,140-188.2c4.1,27.6,27.9,48.9,56.7,48.9c28.7,0,52.5-21.3,56.7-48.9   c82.9,24.8,140,100.8,140,188.2c0,13-1.4,25.9-3.9,38.6c-10.5-13.5-26.8-22.2-45.2-22.2c-31.6,0-57.4,25.7-57.4,57.4   s25.7,57.4,57.4,57.4s57.4-25.7,57.4-57.4c0-3.9-0.4-7.7-1.1-11.4c6.2-20.1,9.3-41.1,9.3-62.3c0-96.4-64.1-179.9-156.4-205.3   C308.5,23.2,284.7,2,256,2c-28.7,0-52.5,21.2-56.6,48.8C107,76.1,43,159.6,43,256c0,21.2,3.2,42.2,9.3,62.3   C51.6,322,51.2,325.8,51.2,329.7z M403.5,370.7c-22.6,0-41-18.4-41-41c0-22.6,18.4-41,41-41c22.6,0,41,18.4,41,41   C444.5,352.3,426.1,370.7,403.5,370.7z M256,18.4c22.6,0,41,18.4,41,41s-18.4,41-41,41s-41-18.4-41-41S233.4,18.4,256,18.4z    M108.5,288.8c22.6,0,41,18.4,41,41c0,22.6-18.4,41-41,41s-41-18.4-41-41C67.5,307.2,85.9,288.8,108.5,288.8z"/><path d="M493,412.8L493,412.8c-10-12.2-24.5-20.7-40.9-24.1l-3.5-0.7l-2.9,2c-5.7,4-28.1,31.6-42.3,49.4   c-14.2-17.8-36.6-45.4-42.3-49.4l-2.9-2l-3.5,0.7c-16.4,3.4-30.9,11.9-40.9,24.1c-8.3,10.1-13.8,22.4-15.9,35.3   c-27.5,6-56.5,6-84,0c-2.1-12.9-7.6-25.1-15.9-35.3h0c-10-12.2-24.5-20.7-40.9-24.1l-3.5-0.7l-2.9,2c-5.7,4-28.1,31.6-42.3,49.4   c-14.2-17.8-36.6-45.4-42.3-49.4l-2.9-2l-3.5,0.7c-16.4,3.4-30.9,11.9-40.9,24.1C8,426.1,2,443,2,460.3V510h213v-45   c13.4,2.6,27.2,4,41,4c13.8,0,27.5-1.4,41-4v45h213v-49.7C510,443,504,426.1,493,412.8z M198.6,493.6H18.4v-33.3   c0-13.5,4.7-26.7,13.2-37.1c6.8-8.3,16.5-14.4,27.5-17.5c7.3,7.7,26.3,30.9,43,52l6.4,8.1l6.4-8.1c16.7-21.2,35.7-44.4,42.9-52   c11.1,3.1,20.7,9.2,27.5,17.5c8.5,10.4,13.2,23.6,13.2,37.1V493.6z M493.6,493.6H313.4v-33.3c0-13.5,4.7-26.7,13.2-37.1   c6.8-8.3,16.5-14.4,27.5-17.5c7.3,7.7,26.3,30.9,43,52l6.4,8.1l6.4-8.1c16.7-21.2,35.7-44.4,42.9-52c11.1,3.1,20.7,9.2,27.5,17.5   c8.5,10.4,13.2,23.6,13.2,37.1V493.6z"/><rect x="247.8" y="272.4" width="16.4" height="16.4"/><rect x="280.6" y="272.4" width="16.4" height="16.4"/><rect x="215" y="272.4" width="16.4" height="16.4"/></g><text x="0" y="527" fill="#0399cd" font-size="5px" font-weight="bold" font-family="'Helvetica Neue', Helvetica, Arial-Unicode, Arial, Sans-serif">Created by Icon Fair</text><text x="0" y="532" fill="#0399cd" font-size="5px" font-weight="bold" font-family="'Helvetica Neue', Helvetica, Arial-Unicode, Arial, Sans-serif">from the Noun Project</text></svg>