<svg xmlns="http://www.w3.org/2000/svg" xmlns:xlink="http://www.w3.org/1999/xlink" version="1.1" x="0px" y="0px" fill="#58b582" viewBox="0 0 128 160" enable-background="new 0 0 128 128" xml:space="preserve"><g><path d="M120.7,62.9c0.4,0,0.8-0.3,0.8-0.8V51.4c0-0.4-0.3-0.8-0.8-0.8s-0.8,0.3-0.8,0.8v10.8C119.9,62.6,120.3,62.9,120.7,62.9z"/><path d="M120.7,69.9c0.4,0,0.8-0.3,0.8-0.8v-3.5c0-0.4-0.3-0.8-0.8-0.8s-0.8,0.3-0.8,0.8v3.5C119.9,69.6,120.3,69.9,120.7,69.9z"/><path d="M6.4,103.3c-0.3-0.3-0.8-0.3-1.1,0c-0.3,0.3-0.3,0.8,0,1.1l1.5,1.5c0.1,0.1,0.3,0.2,0.5,0.2c0.2,0,0.4-0.1,0.5-0.2   c0.3-0.3,0.3-0.8,0-1.1L6.4,103.3z"/><path d="M11.2,108.1c-0.3-0.3-0.8-0.3-1.1,0c-0.3,0.3-0.3,0.8,0,1.1l1.5,1.5c0.1,0.1,0.3,0.2,0.5,0.2c0.2,0,0.4-0.1,0.5-0.2   c0.3-0.3,0.3-0.8,0-1.1L11.2,108.1z"/><path d="M6.8,108.1l-1.5,1.5c-0.3,0.3-0.3,0.8,0,1.1c0.1,0.1,0.3,0.2,0.5,0.2c0.2,0,0.4-0.1,0.5-0.2l1.5-1.5c0.3-0.3,0.3-0.8,0-1.1   C7.6,107.8,7.1,107.8,6.8,108.1z"/><path d="M11.6,103.3l-1.5,1.5c-0.3,0.3-0.3,0.8,0,1.1c0.1,0.1,0.3,0.2,0.5,0.2c0.2,0,0.4-0.1,0.5-0.2l1.5-1.5   c0.3-0.3,0.3-0.8,0-1.1C12.3,103,11.9,103,11.6,103.3z"/><path d="M101.9,29.4c0.1,0.1,0.3,0.2,0.5,0.2c0.2,0,0.4-0.1,0.5-0.2c0.3-0.3,0.3-0.8,0-1.1l-1.5-1.5c-0.3-0.3-0.8-0.3-1.1,0   c-0.3,0.3-0.3,0.8,0,1.1L101.9,29.4z"/><path d="M106.7,34.2c0.1,0.1,0.3,0.2,0.5,0.2c0.2,0,0.4-0.1,0.5-0.2c0.3-0.3,0.3-0.8,0-1.1l-1.5-1.5c-0.3-0.3-0.8-0.3-1.1,0   c-0.3,0.3-0.3,0.8,0,1.1L106.7,34.2z"/><path d="M100.5,34.2c0.1,0.1,0.3,0.2,0.5,0.2c0.2,0,0.4-0.1,0.5-0.2l1.5-1.5c0.3-0.3,0.3-0.8,0-1.1c-0.3-0.3-0.8-0.3-1.1,0   l-1.5,1.5C100.2,33.4,100.2,33.9,100.5,34.2z"/><path d="M105.8,29.6c0.2,0,0.4-0.1,0.5-0.2l1.5-1.5c0.3-0.3,0.3-0.8,0-1.1c-0.3-0.3-0.8-0.3-1.1,0l-1.5,1.5c-0.3,0.3-0.3,0.8,0,1.1   C105.4,29.6,105.6,29.6,105.8,29.6z"/><path d="M49.1,10.3c0.1,0.1,0.3,0.2,0.5,0.2c0.2,0,0.4-0.1,0.5-0.2c0.3-0.3,0.3-0.8,0-1.1l-1.5-1.5c-0.3-0.3-0.8-0.3-1.1,0   c-0.3,0.3-0.3,0.8,0,1.1L49.1,10.3z"/><path d="M53.9,15.1c0.1,0.1,0.3,0.2,0.5,0.2c0.2,0,0.4-0.1,0.5-0.2c0.3-0.3,0.3-0.8,0-1.1l-1.5-1.5c-0.3-0.3-0.8-0.3-1.1,0   c-0.3,0.3-0.3,0.8,0,1.1L53.9,15.1z"/><path d="M48.2,15.3c0.2,0,0.4-0.1,0.5-0.2l1.5-1.5c0.3-0.3,0.3-0.8,0-1.1c-0.3-0.3-0.8-0.3-1.1,0l-1.5,1.5c-0.3,0.3-0.3,0.8,0,1.1   C47.8,15.3,48,15.3,48.2,15.3z"/><path d="M53,10.6c0.2,0,0.4-0.1,0.5-0.2L55,8.9c0.3-0.3,0.3-0.8,0-1.1c-0.3-0.3-0.8-0.3-1.1,0l-1.5,1.5c-0.3,0.3-0.3,0.8,0,1.1   C52.6,10.5,52.8,10.6,53,10.6z"/><path d="M2.9,14.8C3,14.9,3.2,15,3.4,15c0.2,0,0.4-0.1,0.5-0.2c0.3-0.3,0.3-0.8,0-1.1l-1.5-1.5c-0.3-0.3-0.8-0.3-1.1,0   c-0.3,0.3-0.3,0.8,0,1.1L2.9,14.8z"/><path d="M7.6,19.5c0.1,0.1,0.3,0.2,0.5,0.2c0.2,0,0.4-0.1,0.5-0.2c0.3-0.3,0.3-0.8,0-1.1L7.2,17c-0.3-0.3-0.8-0.3-1.1,0   c-0.3,0.3-0.3,0.8,0,1.1L7.6,19.5z"/><path d="M1.9,19.7c0.2,0,0.4-0.1,0.5-0.2l1.5-1.5c0.3-0.3,0.3-0.8,0-1.1c-0.3-0.3-0.8-0.3-1.1,0l-1.5,1.5c-0.3,0.3-0.3,0.8,0,1.1   C1.5,19.7,1.7,19.7,1.9,19.7z"/><path d="M6.7,15c0.2,0,0.4-0.1,0.5-0.2l1.5-1.5C9,13,9,12.5,8.7,12.2c-0.3-0.3-0.8-0.3-1.1,0l-1.5,1.5c-0.3,0.3-0.3,0.8,0,1.1   C6.3,14.9,6.5,15,6.7,15z"/><path d="M32.2,100.2c-2.9,0-5.3,2.4-5.3,5.3c0,2.9,2.4,5.3,5.3,5.3c2.9,0,5.3-2.4,5.3-5.3C37.5,102.6,35.2,100.2,32.2,100.2z    M32.2,109.3c-2.1,0-3.8-1.7-3.8-3.8c0-2.1,1.7-3.8,3.8-3.8c2.1,0,3.8,1.7,3.8,3.8C36,107.6,34.3,109.3,32.2,109.3z"/><path d="M72,32.3c2.4,0,4.3-1.9,4.3-4.3c0-2.4-1.9-4.3-4.3-4.3c-2.4,0-4.3,1.9-4.3,4.3C67.7,30.4,69.7,32.3,72,32.3z M72,25.2   c1.5,0,2.8,1.3,2.8,2.8c0,1.5-1.3,2.8-2.8,2.8c-1.5,0-2.8-1.3-2.8-2.8C69.2,26.5,70.5,25.2,72,25.2z"/><path d="M104.5,13.1c0-1.9-1.6-3.5-3.5-3.5c-1.9,0-3.5,1.6-3.5,3.5c0,1.9,1.6,3.5,3.5,3.5C102.9,16.6,104.5,15,104.5,13.1z    M99,13.1c0-1.1,0.9-2,2-2c1.1,0,2,0.9,2,2s-0.9,2-2,2C99.9,15.1,99,14.2,99,13.1z"/><path d="M17.5,82.8c0-0.4-0.3-0.8-0.8-0.8H5.1c-0.4,0-0.8,0.3-0.8,0.8c0,0.4,0.3,0.8,0.8,0.8h11.6C17.1,83.6,17.5,83.2,17.5,82.8z"/><path d="M24.3,82.1h-3.8c-0.4,0-0.8,0.3-0.8,0.8c0,0.4,0.3,0.8,0.8,0.8h3.8c0.4,0,0.8-0.3,0.8-0.8C25.1,82.4,24.7,82.1,24.3,82.1z"/><path d="M24.3,86.1h-8.1c-0.4,0-0.8,0.3-0.8,0.8c0,0.4,0.3,0.8,0.8,0.8h8.1c0.4,0,0.8-0.3,0.8-0.8C25.1,86.4,24.7,86.1,24.3,86.1z"/><path d="M12.7,86.1h-2.6c-0.4,0-0.8,0.3-0.8,0.8c0,0.4,0.3,0.8,0.8,0.8h2.6c0.4,0,0.8-0.3,0.8-0.8C13.4,86.4,13.1,86.1,12.7,86.1z"/><path d="M85,74.2H57.5c-0.4,0-0.8,0.3-0.8,0.8c0,0.4,0.3,0.8,0.8,0.8H85c0.4,0,0.8-0.3,0.8-0.8C85.7,74.5,85.4,74.2,85,74.2z"/><path d="M85,81.1H57.5c-0.4,0-0.8,0.3-0.8,0.8c0,0.4,0.3,0.8,0.8,0.8H85c0.4,0,0.8-0.3,0.8-0.8C85.7,81.4,85.4,81.1,85,81.1z"/><path d="M85,87.9H57.5c-0.4,0-0.8,0.3-0.8,0.8s0.3,0.8,0.8,0.8H85c0.4,0,0.8-0.3,0.8-0.8S85.4,87.9,85,87.9z"/><path d="M85,94.8H67.3c-0.4,0-0.8,0.3-0.8,0.8c0,0.4,0.3,0.8,0.8,0.8H85c0.4,0,0.8-0.3,0.8-0.8C85.7,95.2,85.4,94.8,85,94.8z"/><path d="M80.6,47.7h-1.7c-0.4,0-0.8,0.3-0.8,0.8c0,0.4,0.3,0.8,0.8,0.8h1.7c0.4,0,0.8-0.3,0.8-0.8C81.4,48.1,81,47.7,80.6,47.7z"/><path d="M76.7,47.7h-1.7c-0.4,0-0.8,0.3-0.8,0.8c0,0.4,0.3,0.8,0.8,0.8h1.7c0.4,0,0.8-0.3,0.8-0.8C77.5,48.1,77.2,47.7,76.7,47.7z"/><path d="M65,112c-1.4,0-2.5,1.1-2.5,2.5c0,1.4,1.1,2.5,2.5,2.5h13.2c1.4,0,2.5-1.1,2.5-2.5c0-1.4-1.1-2.5-2.5-2.5H65z M79.1,114.5   c0,0.5-0.4,1-1,1H65c-0.5,0-1-0.4-1-1s0.4-1,1-1h13.2C78.7,113.5,79.1,114,79.1,114.5z"/><path d="M89,46c-1.4,0-2.5,1.1-2.5,2.5c0,1.4,1.1,2.5,2.5,2.5c1.4,0,2.5-1.1,2.5-2.5C91.5,47.1,90.4,46,89,46z M89,49.5   c-0.6,0-1-0.5-1-1c0-0.6,0.5-1,1-1c0.6,0,1,0.5,1,1C90,49,89.6,49.5,89,49.5z"/><path d="M126,95.4c0,0.4,0.4,0.7,0.7,0.7c0,0,0.1,0,0.1,0c0.4-0.1,0.7-0.4,0.7-0.8c-0.2-1.7-0.7-3.4-1.3-5c-0.2-0.4-0.6-0.6-1-0.4   c-0.4,0.2-0.6,0.6-0.4,1C125.4,92.3,125.8,93.9,126,95.4z"/><path d="M114.7,114.7c-1.5,0.6-3,1-4.6,1.2c-0.4,0.1-0.7,0.4-0.7,0.8c0,0.4,0.4,0.7,0.7,0.7c0,0,0.1,0,0.1,0c1.7-0.2,3.4-0.6,5-1.3   c0.4-0.2,0.6-0.6,0.4-1C115.6,114.7,115.1,114.5,114.7,114.7z"/><path d="M122.3,109c-1,1.3-2.1,2.4-3.4,3.3c-0.3,0.3-0.4,0.7-0.1,1.1c0.1,0.2,0.4,0.3,0.6,0.3c0.2,0,0.3,0,0.5-0.2   c1.4-1,2.6-2.3,3.7-3.6c0.3-0.3,0.2-0.8-0.1-1.1C123,108.6,122.5,108.7,122.3,109z"/><path d="M105.4,115.8c-1.6-0.2-3.1-0.6-4.6-1.3c-0.4-0.2-0.8,0-1,0.4c-0.2,0.4,0,0.8,0.4,1c1.6,0.7,3.2,1.1,4.9,1.4c0,0,0,0,0,0   c0,0,0.1,0,0.1,0c0.4,0,0.7-0.3,0.7-0.7C106.1,116.3,105.8,115.9,105.4,115.8z"/><path d="M120,82.1c-0.3-0.3-0.8-0.2-1.1,0.1c-0.3,0.3-0.2,0.8,0.1,1.1c1.3,1,2.4,2.1,3.4,3.4c0.1,0.2,0.4,0.3,0.6,0.3   c0.2,0,0.3-0.1,0.5-0.2c0.3-0.3,0.4-0.7,0.1-1.1C122.6,84.4,121.4,83.2,120,82.1z"/><path d="M115.5,79.5c-1.6-0.7-3.2-1.1-4.9-1.3l-0.2,0.7l-0.1,0.8c1.6,0.2,3.1,0.6,4.5,1.2c0.1,0,0.2,0.1,0.3,0.1   c0.3,0,0.6-0.2,0.7-0.5C116.1,80.1,115.9,79.7,115.5,79.5z"/><path d="M100,80.4c0.1,0.3,0.4,0.5,0.7,0.5c0.1,0,0.2,0,0.3-0.1c1.5-0.6,3-1,4.6-1.2c0.4-0.1,0.7-0.4,0.7-0.8   c-0.1-0.4-0.4-0.7-0.8-0.7c-1.7,0.2-3.4,0.7-5,1.3C100,79.6,99.8,80,100,80.4z"/><path d="M92.3,85.6c-0.3,0.3-0.2,0.8,0.1,1.1c0.1,0.1,0.3,0.2,0.5,0.2c0.2,0,0.4-0.1,0.6-0.3c1-1.3,2.1-2.4,3.4-3.3   c0.3-0.2,0.4-0.6,0.2-1V50.4c0-4.9-4-8.9-8.9-8.9h-1.8H65.1L26.1,7.8c-0.2-0.1-0.4-0.2-0.5-0.2c-0.2,0-0.4,0.1-0.5,0.3L5.3,30.6   C5,31,5,31.4,5.4,31.7L15,40H1.3c-0.4,0-0.8,0.3-0.8,0.8v30.1c0,0.4,0.3,0.8,0.8,0.8h44.8v39.9c0,4.9,4,8.8,8.8,8.8h33.3   c0,0,0,0,0,0v0c0.4,0,0.8,0,1.2-0.1c0.1,0,0.1,0,0.2,0c0.4-0.1,0.8-0.1,1.1-0.3c0.1,0,0.1,0,0.2-0.1c0.4-0.1,0.7-0.2,1.1-0.4   c0,0,0.1,0,0.1-0.1c0.3-0.1,0.6-0.3,0.9-0.5c0.1,0,0.2-0.1,0.2-0.1c0.3-0.2,0.5-0.4,0.8-0.6c0.1-0.1,0.2-0.2,0.3-0.2   c0.2-0.2,0.5-0.5,0.7-0.7c0.1-0.1,0.1-0.1,0.2-0.2c0.2-0.3,0.4-0.5,0.6-0.8c0,0,0.1-0.1,0.1-0.1c0.2-0.3,0.4-0.7,0.5-1   c0,0,0-0.1,0.1-0.1l0,0c0.2-0.5,0.4-1.1,0.5-1.7l-0.2,0c0,0,0.1-0.1,0.1-0.1c0.3-0.3,0.2-0.8-0.1-1.1c-1.3-1-2.4-2.1-3.3-3.4   c-0.3-0.3-0.7-0.4-1.1-0.1c-0.3,0.3-0.4,0.7-0.1,1.1c0.9,1.3,2,2.4,3.3,3.4l0,0c-0.1,0.5-0.3,1-0.5,1.5c-0.1,0.3-0.3,0.6-0.4,0.8   c0,0,0,0.1-0.1,0.1c-0.2,0.2-0.3,0.5-0.5,0.7c0,0.1-0.1,0.1-0.1,0.2c-0.2,0.2-0.4,0.4-0.6,0.6c-0.1,0.1-0.1,0.1-0.2,0.2   c-0.2,0.2-0.4,0.4-0.7,0.5c-0.1,0-0.1,0.1-0.2,0.1c-0.2,0.2-0.5,0.3-0.8,0.4c0,0,0,0-0.1,0c-0.3,0.1-0.6,0.2-0.9,0.3   c0,0-0.1,0-0.1,0c-0.3,0.1-0.6,0.2-0.9,0.2c0,0-0.1,0-0.1,0c-0.3,0-0.7,0.1-1,0.1H54.9c-4,0-7.3-3.3-7.3-7.3v-1.8h41.3v-1.5H47.6   V71.7H57c0.4,0,0.8-0.3,0.8-0.8V57.5l2.6-3h35.2v27.8C94.3,83.3,93.2,84.4,92.3,85.6z M56.3,70.2H2V41.5h15h8.6h28.8h1.8v15.7V70.2   z M52.4,40H38.1c0-0.2,0.1-0.3,0.1-0.5c0-0.6-0.4-1.3-1-2.1l2.1-2.4c0.5,0.6,0.5,1.2,0.1,1.8l0.9,0.8c0.8-1.2,0.7-2.3-0.4-3.4   l0.6-0.8L40,33l-0.6,0.8c-0.7-0.5-1.3-0.7-2-0.6c-0.7,0-1.2,0.4-1.7,0.9c-0.9,1-0.8,2.2,0.3,3.6l-2,2.3h-0.6   c-0.3-0.6-0.3-1.3,0.3-2l-0.9-0.8c-0.7,1-0.9,1.9-0.5,2.9h-6.4l-8.7-7.5c0.4-0.6,0.5-1.4,0.5-2.1c-0.1-0.7-0.3-1.4-0.8-2l7.6-8.7   c0.6,0.4,1.4,0.5,2.1,0.5c0.7-0.1,1.4-0.3,2-0.8L52.4,40z M36.4,38.2c0.3,0.5,0.5,0.9,0.5,1.2c0,0.2-0.1,0.4-0.2,0.6h-1.9   L36.4,38.2z M36.7,34.8c0.6-0.7,1.3-0.8,2.1-0.3l-2,2.3c-0.2-0.3-0.4-0.7-0.4-1C36.2,35.5,36.4,35.2,36.7,34.8z M57,40h-2.3   L29,17.8c-0.2-0.1-0.3-0.2-0.5-0.2c-0.2,0-0.4,0.1-0.5,0.3c-0.4,0.4-0.9,0.7-1.5,0.8c-0.3,0-0.6,0-0.9-0.1   c-0.3-0.1-0.5-0.2-0.8-0.4c-0.3-0.3-0.8-0.2-1.1,0.1l-8.4,9.8c-0.1,0.2-0.2,0.3-0.2,0.5c0,0.2,0.1,0.4,0.3,0.5   c0.5,0.4,0.7,0.9,0.8,1.5c0,0.3,0,0.6-0.1,0.9c-0.1,0.3-0.2,0.5-0.4,0.8c-0.1,0.2-0.2,0.3-0.2,0.5c0,0.2,0.1,0.4,0.3,0.5l7.9,6.8   h-6.3l-10.4-9L25.6,9.4l41,35.5l-8.9,10.3V40.8C57.8,40.4,57.4,40,57,40z M61.7,53l3.3-3.8H72c0.4,0,0.8-0.3,0.8-0.8   c0-0.4-0.3-0.8-0.8-0.8h-5.8l2.1-2.4c0.1-0.2,0.2-0.3,0.2-0.5c0-0.2-0.1-0.4-0.3-0.5l-1.4-1.2h19.5h1.8c4,0,7.3,3.3,7.3,7.3V53   H61.7z"/><path d="M126.8,99.6c-0.4-0.1-0.8,0.3-0.9,0.7c-0.2,1.6-0.6,3.1-1.3,4.6c-0.2,0.4,0,0.8,0.4,1c0.1,0,0.2,0.1,0.3,0.1   c0.3,0,0.6-0.2,0.7-0.5c0.7-1.6,1.1-3.3,1.4-4.9c0,0,0-0.1,0-0.1C127.5,100,127.2,99.7,126.8,99.6z"/><path d="M90.6,89.7c-0.4-0.2-0.8,0-1,0.4c-0.7,1.6-1.1,3.2-1.4,4.9c0,0,0,0,0,0c-0.1,0.4,0.2,0.8,0.7,0.8c0,0,0.1,0,0.1,0   c0.4,0,0.7-0.3,0.8-0.7c0.2-1.6,0.6-3.1,1.3-4.6C91.2,90.3,91,89.8,90.6,89.7z"/><path d="M88.9,99.4c-0.4,0.1-0.7,0.4-0.7,0.8c0.2,1.7,0.7,3.4,1.3,5c0.1,0.3,0.4,0.5,0.7,0.5c0.1,0,0.2,0,0.3-0.1   c0.4-0.2,0.6-0.6,0.4-1c-0.6-1.5-1-3-1.2-4.6C89.7,99.6,89.3,99.3,88.9,99.4z"/><path d="M22.9,25.9c-1.2,1.4-1,3.4,0.3,4.6c0.6,0.5,1.4,0.8,2.1,0.8c0.9,0,1.8-0.4,2.5-1.1c1.2-1.4,1-3.4-0.3-4.6   C26.1,24.4,24,24.6,22.9,25.9z M26.5,26.7c0.7,0.6,0.8,1.7,0.2,2.5c-0.6,0.7-1.7,0.8-2.5,0.2c-0.7-0.6-0.8-1.7-0.2-2.5   c0.3-0.4,0.8-0.6,1.3-0.6C25.7,26.3,26.1,26.4,26.5,26.7z"/><path d="M29.5,55.2V52c0.8,0.1,1.2,0.6,1.3,1.4H32c-0.1-1.4-1-2.2-2.5-2.3v-1h-0.7v1c-0.8,0.1-1.4,0.3-1.9,0.8   c-0.5,0.5-0.7,1.1-0.7,1.8c0,1.3,0.9,2.2,2.6,2.5v3.6c-0.9-0.2-1.5-0.8-1.6-1.8H26c0.1,1.7,1,2.6,2.8,2.8v1h0.7v-1   c0.9,0,1.5-0.3,2-0.9c0.5-0.5,0.7-1.2,0.7-2c0-0.7-0.2-1.3-0.6-1.7C31.3,55.7,30.6,55.4,29.5,55.2z M28.8,55   c-0.4-0.1-0.7-0.3-1-0.5c-0.3-0.2-0.4-0.6-0.4-1c0-0.9,0.5-1.4,1.4-1.6V55z M29.5,59.7v-3.4c0.6,0.2,1,0.4,1.2,0.6   c0.2,0.2,0.3,0.6,0.3,1C31,59,30.5,59.6,29.5,59.7z"/><path d="M14.7,52.6c-1.8,0-3.2,1.5-3.2,3.2c0,1.8,1.5,3.2,3.2,3.2c1.8,0,3.2-1.5,3.2-3.2C17.9,54.1,16.5,52.6,14.7,52.6z    M14.7,57.6c-1,0-1.7-0.8-1.7-1.7c0-1,0.8-1.7,1.7-1.7s1.7,0.8,1.7,1.7C16.4,56.8,15.6,57.6,14.7,57.6z"/><path d="M43.6,52.6c-1.8,0-3.2,1.5-3.2,3.2c0,1.8,1.5,3.2,3.2,3.2c1.8,0,3.2-1.5,3.2-3.2C46.9,54.1,45.4,52.6,43.6,52.6z    M43.6,57.6c-1,0-1.7-0.8-1.7-1.7c0-1,0.8-1.7,1.7-1.7s1.7,0.8,1.7,1.7C45.3,56.8,44.6,57.6,43.6,57.6z"/><path d="M50.7,48.6c-1.1,0-2.1-0.9-2.2-2c0-0.1,0-0.2,0-0.2c0-0.4-0.3-0.8-0.8-0.8H10.6c-0.4,0-0.8,0.3-0.8,0.8   c0,1.2-1,2.2-2.2,2.2c-0.4,0-0.8,0.3-0.8,0.8v12.9c0,0.4,0.3,0.8,0.8,0.8c1.2,0,2.2,1,2.2,2.2c0,0.4,0.3,0.8,0.8,0.8h37.1   c0.4,0,0.8-0.3,0.8-0.8c0-1.2,1-2.2,2.2-2.2c0.4,0,0.8-0.3,0.8-0.8V49.4C51.4,49,51.1,48.6,50.7,48.6z M49.9,61.6   c-1.5,0.3-2.6,1.4-2.9,2.9H11.2c-0.3-1.5-1.4-2.6-2.9-2.9V50.1c1.5-0.3,2.6-1.4,2.9-2.9H47c0.3,1.5,1.5,2.6,2.9,2.9V61.6z"/><path d="M111.7,105.2c1.1-0.9,1.6-2.1,1.6-3.4c0-1.3-0.6-2.5-1.6-3.4c-0.8-0.7-1.9-1.2-3-1.3v-6.5c0.8,0.1,1.5,0.4,2.1,0.9   c0.7,0.6,1.1,1.4,1.1,2.3c0,0.4,0.3,0.8,0.8,0.8c0.4,0,0.8-0.3,0.8-0.8c0-1.3-0.6-2.5-1.6-3.4c-0.8-0.7-1.9-1.2-3-1.3v-2.2   c0-0.4-0.3-0.8-0.8-0.8c-0.4,0-0.8,0.3-0.8,0.8V89c-1.1,0.1-2.2,0.6-3,1.3c-1.1,0.9-1.6,2.1-1.6,3.4c0,1.3,0.6,2.5,1.6,3.4   c0.8,0.7,1.9,1.2,3,1.3v6.5c-0.8-0.1-1.5-0.4-2.1-0.9c-0.7-0.6-1.1-1.4-1.1-2.3c0-0.4-0.3-0.8-0.8-0.8c-0.4,0-0.8,0.3-0.8,0.8   c0,1.3,0.6,2.5,1.6,3.4c0.8,0.7,1.9,1.2,3,1.3v2.2c0,0.4,0.3,0.8,0.8,0.8c0.4,0,0.8-0.3,0.8-0.8v-2.2   C109.8,106.4,110.8,105.9,111.7,105.2z M110.7,99.5c0.7,0.6,1.1,1.4,1.1,2.3c0,0.9-0.4,1.7-1.1,2.3c-0.6,0.5-1.3,0.8-2.1,0.9v-6.4   C109.4,98.7,110.1,99,110.7,99.5z M105.1,96c-0.7-0.6-1.1-1.4-1.1-2.3c0-0.9,0.4-1.7,1.1-2.3c0.6-0.5,1.3-0.8,2.1-0.9v6.4   C106.3,96.8,105.6,96.5,105.1,96z"/></g><text x="0" y="143" fill="#ffffff" font-size="5px" font-weight="bold" font-family="'Helvetica Neue', Helvetica, Arial-Unicode, Arial, Sans-serif">Created by Creative Stall</text><text x="0" y="148" fill="#ffffff" font-size="5px" font-weight="bold" font-family="'Helvetica Neue', Helvetica, Arial-Unicode, Arial, Sans-serif">from the Noun Project</text></svg>