<svg xmlns="http://www.w3.org/2000/svg" xmlns:xlink="http://www.w3.org/1999/xlink" version="1.1" x="0px" y="0px" viewBox="0 0 512 640" enable-background="new 0 0 512 512" xml:space="preserve" fill="#ffffff"><g><path d="M92.1,153.6c31.6,0,57.4-25.7,57.4-57.4s-25.7-57.4-57.4-57.4S34.8,64.6,34.8,96.2S60.5,153.6,92.1,153.6z M92.1,55.3   c22.6,0,41,18.4,41,41s-18.4,41-41,41s-41-18.4-41-41S69.5,55.3,92.1,55.3z"/><path d="M510,333.8V104.4H198.6v41H215v-24.6h278.6v196.6H378.9h-49.2H215v-90.1h-16.4v106.5h131.1v73.7H256v65.5h49.2v-16.4h24.6   v16.4h49.2v-16.4h24.6v16.4h49.2v-65.5h-73.7v-73.7H510z M436.3,424v32.8h-16.4v-16.4h-57.4v16.4h-16.4v-16.4h-57.4v16.4h-16.4V424   h73.7v-90.1h16.4V424H436.3z"/><rect x="460.8" y="145.4" width="16.4" height="147.5"/><rect x="428.1" y="170" width="16.4" height="122.9"/><rect x="395.3" y="194.5" width="16.4" height="98.3"/><rect x="362.5" y="219.1" width="16.4" height="73.7"/><rect x="329.7" y="243.7" width="16.4" height="49.2"/><path d="M307.5,202.3c4.7-5.5,6.7-12.8,5.5-20c-1.9-11.7-12.7-20.5-25.1-20.5H108.1l-15.9,47.8l-15.9-47.8H59.4   C27.7,161.8,2,187.5,2,219.1v139.3h16.4v114.7h147.5V358.4h16.4V218.9c0-2.2,0.8-4.2,2.3-5.7c1.5-1.5,3.4-2.3,5.5-2.3h98.7   C296,210.9,302.8,207.8,307.5,202.3z M173,201.6c-4.6,4.6-7.1,10.8-7.1,17.5V342h-16.4v114.7h-49.2v-57.4H83.9v57.4H34.8V342H18.4   V219.1c0-22.6,18.4-41,41-41h5l27.8,83.3l27.8-83.3h168c4.4,0,8.3,3,9,6.8c0.4,2.5-0.2,4.9-1.8,6.7c-1.6,1.8-3.8,2.9-6.2,2.9h-98.7   C183.6,194.5,177.6,197.1,173,201.6z"/></g><text x="0" y="527" fill="#0399cd" font-size="5px" font-weight="bold" font-family="'Helvetica Neue', Helvetica, Arial-Unicode, Arial, Sans-serif">Created by Icon Fair</text><text x="0" y="532" fill="#0399cd" font-size="5px" font-weight="bold" font-family="'Helvetica Neue', Helvetica, Arial-Unicode, Arial, Sans-serif">from the Noun Project</text></svg>