<svg xmlns="http://www.w3.org/2000/svg" xmlns:xlink="http://www.w3.org/1999/xlink" fill="#ff5b77" version="1.1" x="0px" y="0px" viewBox="0 0 128 160" enable-background="new 0 0 128 128" xml:space="preserve"><g><path d="M55.4,32.5c-0.5,0.3-0.9,0.6-1.3,1c0,0,0,0,0,0c-10.3,8.5-16,18.7-17.2,30.2c0,0,0,0,0,0c-0.1,1.4-0.2,2.8-0.2,4.3   c0,14.6,10.3,23.7,19.1,27c0,0,0,0,0,0c0.6,0.3,1.2,0.5,1.8,0.6l0,0c0,0,0,0,0,0c0.4,0.1,0.7,0.1,1.1,0.1c2.3,0,4.3-1.1,5.4-2.8   c1.1,1.7,3.1,2.8,5.4,2.8c0.3,0,0.7,0,1.1-0.1l0,0c0,0,0,0,0.1,0c0,0,0,0,0,0c0,0,0,0,0,0c0.6-0.1,1.1-0.3,1.7-0.6c0,0,0,0,0,0   c8.8-3.3,19.1-12.4,19.1-27c0-1.5-0.1-2.9-0.2-4.3c0,0,0,0,0,0c-1.2-11.5-6.9-21.6-17.2-30.2c-0.5-0.4-0.9-0.7-1.4-1   c-1-0.5-2.1-0.8-3.2-0.8c-2.3,0-4.3,1.1-5.4,2.8c-1.1-1.7-3.1-2.8-5.4-2.8C57.6,31.6,56.5,31.9,55.4,32.5L55.4,32.5   C55.5,32.5,55.5,32.5,55.4,32.5C55.5,32.5,55.5,32.5,55.4,32.5C55.4,32.5,55.4,32.5,55.4,32.5z M69.5,33.2c0.9,0,1.7,0.2,2.4,0.6   c0.4,0.3,0.8,0.6,1.2,0.9c1.3,1.1,2.6,2.2,3.7,3.4c0,0,0,0,0,0c0,0,2,2.1-1.8,8c-0.2,0.3-0.1,0.8,0.2,1c0.1,0.1,0.3,0.1,0.4,0.1   c0.2,0,0.5-0.1,0.6-0.3c1.9-2.9,2.5-5.1,2.6-6.7c2.6,2.9,4.8,6,6.5,9.2c-0.2,0.9-1.4,4.2-5.5,4.9c-0.4,0.1-0.7,0.5-0.6,0.9   c0.1,0.4,0.4,0.6,0.7,0.6c0,0,0.1,0,0.1,0c3.6-0.7,5.4-2.9,6.2-4.6c1.6,3.4,2.7,7,3.2,10.7c-2.8-2-9-4.9-16.4,1.2   c-0.3,0.3-0.4,0.7-0.1,1.1c0.1,0.2,0.4,0.3,0.6,0.3c0.2,0,0.3-0.1,0.5-0.2c8.2-6.8,14.6-1.4,15.7-0.3c0.1,1.3,0.2,2.7,0.2,4   c0,8.7-3.9,15.4-8.9,19.9c0.5-3,0.6-8.4-3.4-10.6c-0.4-0.2-0.8-0.1-1,0.3c-0.2,0.4-0.1,0.8,0.3,1c4.2,2.4,2.6,9.6,2.3,10.9   c-2.4,1.9-5,3.3-7.4,4.2c-0.5,0.2-1,0.4-1.6,0.5c-0.3,0-0.6,0.1-0.8,0.1c-2.2,0-4.1-1.4-4.6-3.3c0.1-0.3,0.1-0.6,0.1-0.9V71.1   c2.8,1.5,9.2,4.1,14.5-0.8c0.4,1.9,1.6,4.9,4.7,5.5c0,0,0.1,0,0.1,0c0.4,0,0.7-0.3,0.7-0.6c0.1-0.4-0.2-0.8-0.6-0.9   c-3.4-0.6-3.7-5.6-3.7-5.6c0-0.3-0.2-0.6-0.5-0.7c-0.3-0.1-0.6,0-0.8,0.2C74,74.4,66.9,70.6,65,69.4V54.2c0.7-0.5,2-1.3,3.4-1.2   c0.9,0.1,1.7,0.5,2.4,1.4c0.1,0.2,0.4,0.3,0.6,0.3c0.2,0,0.3-0.1,0.5-0.2c0.3-0.3,0.4-0.7,0.1-1.1c-1-1.2-2.1-1.9-3.4-2   c-1.3-0.1-2.6,0.4-3.5,0.9v-15c0-0.3,0-0.6-0.1-0.9C65.3,34.6,67.2,33.2,69.5,33.2z M63.3,36.4c-0.1,0.3-0.1,0.6-0.1,0.9v15   c-0.9-0.5-2.1-1-3.5-0.9c-1.3,0.1-2.5,0.8-3.4,2c-0.3,0.3-0.2,0.8,0.1,1.1c0.1,0.1,0.3,0.2,0.5,0.2c0.2,0,0.4-0.1,0.6-0.3   c0.7-0.9,1.5-1.4,2.4-1.4c1.4-0.1,2.7,0.7,3.4,1.2v15.2c-2,1.3-9.1,5-14.4-1.2c-0.2-0.2-0.5-0.3-0.8-0.2c-0.3,0.1-0.5,0.4-0.5,0.7   c0,0.1-0.3,5-3.7,5.6c-0.4,0.1-0.7,0.5-0.6,0.9c0.1,0.4,0.4,0.6,0.7,0.6c0,0,0.1,0,0.1,0c3.1-0.6,4.3-3.6,4.7-5.5   c5.3,4.9,11.7,2.3,14.5,0.8V90c0,0.3,0,0.6,0.1,0.9c-0.5,1.9-2.4,3.3-4.6,3.3c-0.3,0-0.6,0-0.8-0.1c-0.6-0.2-1.1-0.3-1.6-0.5   c-2.4-0.9-5-2.3-7.4-4.2c-0.3-1.3-1.9-8.5,2.3-10.9c0.4-0.2,0.5-0.7,0.3-1c-0.2-0.4-0.7-0.5-1-0.3c-4,2.3-3.9,7.6-3.4,10.6   c-5-4.5-8.9-11.2-8.9-19.9c0-1.4,0.1-2.7,0.2-4c1.2-1.1,7.5-6.5,15.7,0.3c0.1,0.1,0.3,0.2,0.5,0.2c0.2,0,0.4-0.1,0.6-0.3   c0.3-0.3,0.2-0.8-0.1-1.1c-7.4-6.1-13.6-3.2-16.4-1.2c0.6-3.7,1.6-7.3,3.2-10.7c0.8,1.6,2.6,3.9,6.2,4.6c0,0,0.1,0,0.1,0   c0.4,0,0.7-0.3,0.7-0.6c0.1-0.4-0.2-0.8-0.6-0.9c-4.2-0.8-5.3-4-5.5-4.9c1.7-3.2,3.9-6.3,6.5-9.2c0.1,1.6,0.7,3.7,2.6,6.7   c0.1,0.2,0.4,0.3,0.6,0.3c0.1,0,0.3,0,0.4-0.1c0.3-0.2,0.4-0.7,0.2-1c-3.8-5.8-1.9-7.9-1.8-8c0,0,0,0,0,0c1.2-1.2,2.4-2.3,3.7-3.4   c0.4-0.3,0.8-0.6,1.2-0.9c0.7-0.4,1.6-0.6,2.5-0.6C61,33.2,62.8,34.6,63.3,36.4z"/><path d="M56.2,42.3c0,0,0.8,2-0.2,4.1c-0.8,1.7-2.5,3-5,4c-0.4,0.1-0.6,0.6-0.5,1c0.1,0.3,0.4,0.5,0.7,0.5c0.1,0,0.2,0,0.3,0   c3-1.1,5-2.7,5.9-4.8c1.2-2.7,0.2-5.2,0.2-5.3c-0.2-0.4-0.6-0.6-1-0.4C56.2,41.4,56,41.9,56.2,42.3z"/><path d="M54.1,88.9c0.1,0,0.1,0,0.2,0c0.4-0.1,0.7-0.5,0.6-0.9c0,0-0.6-2.8,0.9-5c1-1.4,2.6-2.3,4.9-2.7c0.4-0.1,0.7-0.4,0.6-0.9   c-0.1-0.4-0.4-0.7-0.9-0.6c-2.7,0.4-4.7,1.5-5.9,3.3c-1.9,2.7-1.2,6-1.2,6.2C53.4,88.7,53.7,88.9,54.1,88.9z"/><path d="M76.6,51.8c0.1,0,0.2,0,0.3,0c0.3,0,0.6-0.2,0.7-0.5c0.1-0.4-0.1-0.8-0.5-1c-2.6-0.9-4.3-2.3-5-4c-0.9-2.1-0.2-4.1-0.2-4.1   c0.2-0.4,0-0.8-0.4-1c-0.4-0.2-0.8,0-1,0.4c0,0.1-1,2.6,0.2,5.3C71.7,49.1,73.7,50.7,76.6,51.8z"/><path d="M67.7,78.9c-0.4-0.1-0.8,0.2-0.9,0.6c-0.1,0.4,0.2,0.8,0.6,0.9c2.3,0.3,3.9,1.2,4.9,2.6c1.5,2.2,1,5,1,5   c-0.1,0.4,0.2,0.8,0.6,0.9c0.1,0,0.1,0,0.2,0c0.3,0,0.7-0.2,0.7-0.6c0-0.1,0.7-3.4-1.2-6.2C72.4,80.4,70.5,79.3,67.7,78.9z"/><path d="M114.2,8.5c0.1,0.1,0.3,0.2,0.5,0.2c0.2,0,0.4-0.1,0.5-0.2c0.3-0.3,0.3-0.8,0-1.1l-1.6-1.6c-0.3-0.3-0.8-0.3-1.1,0   c-0.3,0.3-0.3,0.8,0,1.1L114.2,8.5z"/><path d="M119.4,13.8c0.1,0.1,0.3,0.2,0.5,0.2c0.2,0,0.4-0.1,0.5-0.2c0.3-0.3,0.3-0.8,0-1.1l-1.6-1.6c-0.3-0.3-0.8-0.3-1.1,0   c-0.3,0.3-0.3,0.8,0,1.1L119.4,13.8z"/><path d="M113.1,14c0.2,0,0.4-0.1,0.5-0.2l1.6-1.6c0.3-0.3,0.3-0.8,0-1.1c-0.3-0.3-0.8-0.3-1.1,0l-1.6,1.6c-0.3,0.3-0.3,0.8,0,1.1   C112.7,13.9,112.9,14,113.1,14z"/><path d="M118.3,8.8c0.2,0,0.4-0.1,0.5-0.2l1.6-1.6c0.3-0.3,0.3-0.8,0-1.1c-0.3-0.3-0.8-0.3-1.1,0l-1.6,1.6c-0.3,0.3-0.3,0.8,0,1.1   C117.9,8.7,118.1,8.8,118.3,8.8z"/><path d="M116.7,86.6l-1.6-1.6c-0.3-0.3-0.8-0.3-1.1,0c-0.3,0.3-0.3,0.8,0,1.1l1.6,1.6c0.1,0.1,0.3,0.2,0.5,0.2s0.4-0.1,0.5-0.2   C117,87.4,117,86.9,116.7,86.6z"/><path d="M120.3,90.2c-0.3-0.3-0.8-0.3-1.1,0c-0.3,0.3-0.3,0.8,0,1.1l1.6,1.6c0.1,0.1,0.3,0.2,0.5,0.2c0.2,0,0.4-0.1,0.5-0.2   c0.3-0.3,0.3-0.8,0-1.1L120.3,90.2z"/><path d="M115.6,90.2l-1.6,1.6c-0.3,0.3-0.3,0.8,0,1.1c0.1,0.1,0.3,0.2,0.5,0.2c0.2,0,0.4-0.1,0.5-0.2l1.6-1.6   c0.3-0.3,0.3-0.8,0-1.1C116.4,89.9,115.9,89.9,115.6,90.2z"/><path d="M120.8,85l-1.6,1.6c-0.3,0.3-0.3,0.8,0,1.1c0.1,0.1,0.3,0.2,0.5,0.2c0.2,0,0.4-0.1,0.5-0.2l1.6-1.6c0.3-0.3,0.3-0.8,0-1.1   C121.6,84.7,121.1,84.7,120.8,85z"/><path d="M25.5,116.1c-0.3-0.3-0.8-0.3-1.1,0c-0.3,0.3-0.3,0.8,0,1.1l1.6,1.6c0.1,0.1,0.3,0.2,0.5,0.2c0.2,0,0.4-0.1,0.5-0.2   c0.3-0.3,0.3-0.8,0-1.1L25.5,116.1z"/><path d="M30.7,121.3c-0.3-0.3-0.8-0.3-1.1,0c-0.3,0.3-0.3,0.8,0,1.1l1.6,1.6c0.1,0.1,0.3,0.2,0.5,0.2c0.2,0,0.4-0.1,0.5-0.2   c0.3-0.3,0.3-0.8,0-1.1L30.7,121.3z"/><path d="M26,121.3l-1.6,1.6c-0.3,0.3-0.3,0.8,0,1.1c0.1,0.1,0.3,0.2,0.5,0.2c0.2,0,0.4-0.1,0.5-0.2l1.6-1.6c0.3-0.3,0.3-0.8,0-1.1   C26.8,121,26.3,121,26,121.3z"/><path d="M31.3,116.1l-1.6,1.6c-0.3,0.3-0.3,0.8,0,1.1c0.1,0.1,0.3,0.2,0.5,0.2c0.2,0,0.4-0.1,0.5-0.2l1.6-1.6   c0.3-0.3,0.3-0.8,0-1.1C32,115.8,31.5,115.8,31.3,116.1z"/><path d="M89.7,15.3c2.1,0,3.9-1.7,3.9-3.9c0-2.1-1.7-3.9-3.9-3.9c-2.1,0-3.9,1.7-3.9,3.9C85.9,13.6,87.6,15.3,89.7,15.3z M89.7,9.1   c1.3,0,2.4,1.1,2.4,2.4s-1.1,2.4-2.4,2.4c-1.3,0-2.4-1.1-2.4-2.4S88.4,9.1,89.7,9.1z"/><path d="M8.1,37.9c2.1,0,3.9-1.7,3.9-3.9s-1.7-3.9-3.9-3.9c-2.1,0-3.9,1.7-3.9,3.9S5.9,37.9,8.1,37.9z M8.1,31.7   c1.3,0,2.4,1.1,2.4,2.4c0,1.3-1.1,2.4-2.4,2.4S5.7,35.3,5.7,34C5.7,32.7,6.8,31.7,8.1,31.7z"/><path d="M19.4,9.8c0,0.4,0.3,0.8,0.8,0.8h14.4c0.4,0,0.8-0.3,0.8-0.8S35,9.1,34.6,9.1H20.1C19.7,9.1,19.4,9.4,19.4,9.8z"/><path d="M15.4,9.1h-4.7c-0.4,0-0.8,0.3-0.8,0.8s0.3,0.8,0.8,0.8h4.7c0.4,0,0.8-0.3,0.8-0.8S15.8,9.1,15.4,9.1z"/><path d="M10.7,5.6h10.1c0.4,0,0.8-0.3,0.8-0.8s-0.3-0.8-0.8-0.8H10.7c-0.4,0-0.8,0.3-0.8,0.8S10.3,5.6,10.7,5.6z"/><path d="M25.1,5.6h3.3c0.4,0,0.8-0.3,0.8-0.8s-0.3-0.8-0.8-0.8h-3.3c-0.4,0-0.8,0.3-0.8,0.8S24.7,5.6,25.1,5.6z"/><path d="M111.6,118.2c0-0.4-0.3-0.8-0.8-0.8H96.4c-0.4,0-0.8,0.3-0.8,0.8s0.3,0.8,0.8,0.8h14.4   C111.3,118.9,111.6,118.6,111.6,118.2z"/><path d="M120.3,117.4h-4.7c-0.4,0-0.8,0.3-0.8,0.8s0.3,0.8,0.8,0.8h4.7c0.4,0,0.8-0.3,0.8-0.8S120.7,117.4,120.3,117.4z"/><path d="M120.3,122.4h-10.1c-0.4,0-0.8,0.3-0.8,0.8c0,0.4,0.3,0.8,0.8,0.8h10.1c0.4,0,0.8-0.3,0.8-0.8   C121,122.7,120.7,122.4,120.3,122.4z"/><path d="M105.9,122.4h-3.3c-0.4,0-0.8,0.3-0.8,0.8c0,0.4,0.3,0.8,0.8,0.8h3.3c0.4,0,0.8-0.3,0.8-0.8   C106.7,122.7,106.3,122.4,105.9,122.4z"/><path d="M119.9,27.8v12.5c0,0.4,0.3,0.8,0.8,0.8c0.4,0,0.8-0.3,0.8-0.8V27.8c0-0.4-0.3-0.8-0.8-0.8C120.3,27,119.9,27.4,119.9,27.8   z"/><path d="M120.7,43.6c-0.4,0-0.8,0.3-0.8,0.8v4c0,0.4,0.3,0.8,0.8,0.8c0.4,0,0.8-0.3,0.8-0.8v-4C121.4,43.9,121.1,43.6,120.7,43.6z"/><path d="M5.3,78.5c-0.4,0-0.8,0.3-0.8,0.8v12.5c0,0.4,0.3,0.8,0.8,0.8s0.8-0.3,0.8-0.8V79.3C6.1,78.9,5.7,78.5,5.3,78.5z"/><path d="M5.3,95.1c-0.4,0-0.8,0.3-0.8,0.8v4c0,0.4,0.3,0.8,0.8,0.8s0.8-0.3,0.8-0.8v-4C6.1,95.4,5.7,95.1,5.3,95.1z"/><path d="M64,110.8c25.8,0,46.8-21,46.8-46.8c0-25.8-21-46.8-46.8-46.8S17.2,38.2,17.2,64C17.2,89.8,38.2,110.8,64,110.8z M64,18.7   c25,0,45.3,20.3,45.3,45.3c0,25-20.3,45.3-45.3,45.3C39,109.3,18.7,89,18.7,64C18.7,39,39,18.7,64,18.7z"/><path d="M69.7,23.8c1.3,0.2,2.6,0.4,3.9,0.7c0.1,0,0.1,0,0.2,0c0.3,0,0.6-0.2,0.7-0.6c0.1-0.4-0.2-0.8-0.6-0.9   c-1.3-0.3-2.7-0.6-4-0.8c-0.4-0.1-0.8,0.2-0.9,0.6C69,23.4,69.3,23.7,69.7,23.8z"/><path d="M41.1,30.3c0.1,0,0.3,0,0.4-0.1c1.1-0.7,2.2-1.4,3.4-2c0.4-0.2,0.5-0.7,0.3-1c-0.2-0.4-0.7-0.5-1-0.3   c-1.2,0.6-2.4,1.3-3.5,2.1c-0.3,0.2-0.4,0.7-0.2,1C40.6,30.2,40.9,30.3,41.1,30.3z"/><path d="M50,25.8c0.1,0,0.2,0,0.3,0c1.2-0.4,2.5-0.8,3.8-1.1c0.4-0.1,0.6-0.5,0.5-0.9c-0.1-0.4-0.5-0.6-0.9-0.5   c-1.3,0.3-2.6,0.7-3.9,1.2c-0.4,0.1-0.6,0.6-0.5,1C49.4,25.6,49.7,25.8,50,25.8z"/><path d="M22.7,64.2c0.4,0,0.7-0.3,0.8-0.7c0-1.3,0.1-2.6,0.2-3.9c0-0.4-0.3-0.8-0.7-0.8c-0.4-0.1-0.8,0.3-0.8,0.7   c-0.1,1.3-0.2,2.7-0.2,4.1C21.9,63.9,22.2,64.2,22.7,64.2C22.6,64.2,22.6,64.2,22.7,64.2z"/><path d="M59.8,23.6C59.8,23.6,59.9,23.6,59.8,23.6c1.4-0.1,2.7-0.2,4-0.2c0.4,0,0.8-0.3,0.7-0.8c0-0.4-0.3-0.7-0.8-0.7c0,0,0,0,0,0   c-1.4,0-2.7,0.1-4.1,0.2c-0.4,0-0.7,0.4-0.7,0.8C59.1,23.3,59.4,23.6,59.8,23.6z"/><path d="M33.5,36.8c0.2,0,0.4-0.1,0.6-0.2c0.9-1,1.8-1.9,2.8-2.8c0.3-0.3,0.3-0.8,0.1-1.1c-0.3-0.3-0.8-0.3-1.1-0.1   c-1,0.9-2,1.9-2.9,2.9c-0.3,0.3-0.3,0.8,0,1.1C33.1,36.8,33.3,36.8,33.5,36.8z"/><path d="M30.2,40.2c-0.3-0.2-0.8-0.1-1,0.2c-0.8,1.1-1.5,2.3-2.1,3.5c-0.2,0.4-0.1,0.8,0.3,1c0.1,0.1,0.2,0.1,0.4,0.1   c0.3,0,0.5-0.1,0.7-0.4c0.6-1.1,1.3-2.3,2.1-3.4C30.6,40.9,30.5,40.4,30.2,40.2z"/><path d="M32.8,91.9c0.2,0,0.4-0.1,0.5-0.2c0.3-0.3,0.3-0.7,0.1-1.1c-0.9-1-1.7-2-2.4-3.1c-0.2-0.3-0.7-0.4-1.1-0.2   c-0.3,0.2-0.4,0.7-0.2,1.1c0.8,1.1,1.6,2.2,2.5,3.2C32.3,91.8,32.6,91.9,32.8,91.9z"/><path d="M23.8,69.4c-0.1-0.4-0.4-0.7-0.8-0.6c-0.4,0.1-0.7,0.4-0.6,0.8c0.2,1.3,0.4,2.7,0.7,4c0.1,0.3,0.4,0.6,0.7,0.6   c0.1,0,0.1,0,0.2,0c0.4-0.1,0.7-0.5,0.6-0.9C24.2,72,23.9,70.7,23.8,69.4z"/><path d="M79.2,26.3c1.2,0.5,2.4,1,3.6,1.7c0.1,0.1,0.2,0.1,0.3,0.1c0.3,0,0.5-0.1,0.7-0.4c0.2-0.4,0-0.8-0.3-1   C82.3,26,81,25.5,79.8,25c-0.4-0.2-0.8,0-1,0.4C78.6,25.8,78.8,26.2,79.2,26.3z"/><path d="M26.2,78.9c-0.2-0.4-0.6-0.6-1-0.4c-0.4,0.2-0.6,0.6-0.4,1c0.5,1.3,1.1,2.5,1.7,3.7c0.1,0.3,0.4,0.4,0.7,0.4   c0.1,0,0.2,0,0.3-0.1c0.4-0.2,0.5-0.6,0.3-1C27.2,81.3,26.7,80.1,26.2,78.9z"/><path d="M25.4,49c-0.4-0.1-0.8,0.1-1,0.4c-0.5,1.3-0.9,2.6-1.2,3.9c-0.1,0.4,0.1,0.8,0.5,0.9c0.1,0,0.1,0,0.2,0   c0.3,0,0.6-0.2,0.7-0.6c0.3-1.3,0.7-2.5,1.2-3.8C26,49.6,25.8,49.1,25.4,49z"/><path d="M90.9,33.6c0.1,0.1,0.3,0.2,0.5,0.2c0.2,0,0.4-0.1,0.6-0.3c0.3-0.3,0.2-0.8-0.1-1.1c-1-0.9-2.1-1.8-3.2-2.6   c-0.3-0.2-0.8-0.2-1.1,0.2c-0.2,0.3-0.2,0.8,0.2,1.1C88.9,31.9,89.9,32.7,90.9,33.6z"/><path d="M104.3,59.2c0,0.4,0.4,0.7,0.7,0.7c0,0,0.1,0,0.1,0c0.4,0,0.7-0.4,0.7-0.8c-0.2-1.4-0.4-2.7-0.7-4   c-0.1-0.4-0.5-0.7-0.9-0.6c-0.4,0.1-0.7,0.5-0.6,0.9C103.9,56.6,104.2,57.9,104.3,59.2z"/><path d="M97.4,40.9c0.1,0.2,0.4,0.3,0.6,0.3c0.1,0,0.3,0,0.4-0.1c0.3-0.2,0.4-0.7,0.2-1c-0.8-1.1-1.6-2.2-2.5-3.2   c-0.3-0.3-0.7-0.4-1.1-0.1c-0.3,0.3-0.4,0.7-0.1,1.1C95.9,38.8,96.7,39.9,97.4,40.9z"/><path d="M102.3,77.5c-0.1,0.4,0.1,0.8,0.5,1c0.1,0,0.2,0,0.3,0c0.3,0,0.6-0.2,0.7-0.5c0.5-1.3,0.8-2.6,1.2-3.9   c0.1-0.4-0.1-0.8-0.6-0.9c-0.4-0.1-0.8,0.1-0.9,0.6C103.1,75,102.7,76.3,102.3,77.5z"/><path d="M98.1,87.4c0.1,0.1,0.3,0.1,0.4,0.1c0.2,0,0.5-0.1,0.6-0.3c0.7-1.1,1.4-2.3,2.1-3.5c0.2-0.4,0.1-0.8-0.3-1   c-0.4-0.2-0.8-0.1-1,0.3c-0.6,1.2-1.3,2.3-2,3.4C97.7,86.7,97.8,87.1,98.1,87.4z"/><path d="M102,49.6c0.1,0.3,0.4,0.5,0.7,0.5c0.1,0,0.2,0,0.3,0c0.4-0.1,0.6-0.6,0.4-1c-0.5-1.3-1-2.5-1.6-3.7   c-0.2-0.4-0.6-0.5-1-0.3c-0.4,0.2-0.5,0.6-0.3,1C101,47.2,101.5,48.4,102,49.6z"/><path d="M91.5,94.9c0.1,0.2,0.4,0.2,0.6,0.2c0.2,0,0.4-0.1,0.5-0.2c1-0.9,2-1.9,2.9-2.9c0.3-0.3,0.3-0.8-0.1-1.1   c-0.3-0.3-0.8-0.3-1.1,0.1c-0.9,1-1.8,1.9-2.8,2.8C91.2,94.1,91.2,94.6,91.5,94.9z"/><path d="M104.6,64c0,1.3-0.1,2.6-0.2,3.9c0,0.4,0.3,0.8,0.7,0.8c0,0,0,0,0.1,0c0.4,0,0.7-0.3,0.7-0.7c0.1-1.3,0.2-2.7,0.2-4.1   c0-0.4-0.3-0.8-0.8-0.8C104.9,63.2,104.6,63.6,104.6,64z"/><path d="M49.3,101.9c-1.2-0.5-2.4-1-3.6-1.6c-0.4-0.2-0.8,0-1,0.3c-0.2,0.4,0,0.8,0.3,1c1.2,0.6,2.5,1.2,3.7,1.7   c0.1,0,0.2,0.1,0.3,0.1c0.3,0,0.6-0.2,0.7-0.5C49.9,102.4,49.7,102,49.3,101.9z"/><path d="M37.5,94.8c-0.3-0.3-0.8-0.2-1.1,0.1c-0.3,0.3-0.2,0.8,0.1,1.1c1,0.9,2.1,1.7,3.2,2.5c0.1,0.1,0.3,0.1,0.4,0.1   c0.2,0,0.5-0.1,0.6-0.3c0.2-0.3,0.2-0.8-0.2-1C39.6,96.4,38.5,95.6,37.5,94.8z"/><path d="M58.8,104.3c-1.3-0.2-2.6-0.4-3.9-0.7c-0.4-0.1-0.8,0.2-0.9,0.6c-0.1,0.4,0.2,0.8,0.6,0.9c1.3,0.3,2.7,0.5,4,0.7   c0,0,0.1,0,0.1,0c0.4,0,0.7-0.3,0.7-0.7C59.5,104.7,59.2,104.3,58.8,104.3z"/><path d="M68.7,104.3c-1.3,0.1-2.6,0.2-3.9,0.3c-0.4,0-0.7,0.3-0.7,0.8c0,0.4,0.3,0.7,0.8,0.7c0,0,0,0,0,0c1.4,0,2.7-0.1,4.1-0.3   c0.4,0,0.7-0.4,0.7-0.8C69.4,104.6,69.1,104.3,68.7,104.3z"/><path d="M86.9,97.5c-1.1,0.7-2.2,1.4-3.4,2.1c-0.4,0.2-0.5,0.7-0.3,1c0.1,0.3,0.4,0.4,0.7,0.4c0.1,0,0.2,0,0.4-0.1   c1.2-0.7,2.4-1.4,3.5-2.1c0.3-0.2,0.4-0.7,0.2-1C87.7,97.4,87.3,97.3,86.9,97.5z"/><path d="M78.2,102c-1.2,0.5-2.5,0.9-3.8,1.2c-0.4,0.1-0.6,0.5-0.5,0.9c0.1,0.3,0.4,0.6,0.7,0.6c0.1,0,0.1,0,0.2,0   c1.3-0.3,2.6-0.8,3.9-1.2c0.4-0.1,0.6-0.6,0.4-1C79,102.1,78.6,101.9,78.2,102z"/><path d="M63.4,13.9C63.4,13.9,63.4,13.9,63.4,13.9c0.1,0.1,0.1,0.1,0.2,0.1c0,0,0,0,0.1,0c0.1,0,0.2,0.1,0.3,0.1   c0.1,0,0.2,0,0.3-0.1c0,0,0,0,0.1,0c0.1,0,0.1-0.1,0.2-0.1c0,0,0,0,0,0l3.4-3.8c0.3-0.3,0.2-0.8-0.1-1.1c-0.3-0.3-0.8-0.2-1.1,0.1   l-2.1,2.4l0-10.2c0-0.4-0.3-0.8-0.8-0.8c-0.4,0-0.8,0.3-0.8,0.8l0,10.2l-2.1-2.4c-0.3-0.3-0.8-0.3-1.1-0.1   c-0.3,0.3-0.3,0.8-0.1,1.1L63.4,13.9z"/><path d="M22.3,27.9c0,0.4,0.3,0.8,0.7,0.8l5.1,0.3c0,0,0,0,0,0c0.1,0,0.2,0,0.3-0.1c0.1,0,0.2-0.1,0.2-0.2c0.1-0.1,0.1-0.2,0.2-0.3   c0,0,0,0,0-0.1c0-0.1,0-0.1,0-0.2c0,0,0,0,0,0L28.7,23c0-0.4-0.4-0.7-0.8-0.7c-0.4,0-0.7,0.4-0.7,0.8l0.2,3.2l-7.2-7.2   c-0.3-0.3-0.8-0.3-1.1,0c-0.3,0.3-0.3,0.8,0,1.1l7.2,7.2l-3.2-0.2C22.7,27.2,22.3,27.5,22.3,27.9z"/><path d="M14.2,64c0-0.1,0-0.2-0.1-0.3c0,0,0,0,0-0.1c0-0.1-0.1-0.1-0.1-0.2c0,0,0,0,0,0L10.1,60c-0.3-0.3-0.8-0.3-1.1,0.1   c-0.3,0.3-0.2,0.8,0.1,1.1l2.4,2.1H1.3c-0.4,0-0.8,0.3-0.8,0.8c0,0.4,0.3,0.8,0.8,0.8h10.2l-2.4,2.1c-0.3,0.3-0.3,0.8-0.1,1.1   c0.1,0.2,0.4,0.3,0.6,0.3c0.2,0,0.4-0.1,0.5-0.2l3.8-3.4c0,0,0,0,0,0c0.1-0.1,0.1-0.1,0.1-0.2c0,0,0,0,0-0.1   C14.1,64.2,14.2,64.1,14.2,64z"/><path d="M28.9,99.6C28.9,99.6,28.9,99.5,28.9,99.6c-0.1-0.2-0.1-0.3-0.2-0.3c-0.1-0.1-0.2-0.1-0.3-0.2c0,0-0.1,0-0.1,0   c-0.1,0-0.1,0-0.2,0c0,0,0,0,0,0L23,99.3c-0.4,0-0.7,0.4-0.7,0.8c0,0.4,0.4,0.7,0.8,0.7l3.2-0.2l-7.2,7.2c-0.3,0.3-0.3,0.8,0,1.1   c0.1,0.1,0.3,0.2,0.5,0.2c0.2,0,0.4-0.1,0.5-0.2l7.2-7.2l-0.2,3.2c0,0.4,0.3,0.8,0.7,0.8c0,0,0,0,0,0c0.4,0,0.7-0.3,0.8-0.7   l0.3-5.1c0,0,0,0,0,0C29,99.7,29,99.7,28.9,99.6z"/><path d="M64.6,114.1C64.6,114.1,64.6,114.1,64.6,114.1c-0.1-0.1-0.1-0.1-0.2-0.1c0,0,0,0-0.1,0c-0.1,0-0.2-0.1-0.3-0.1   c-0.1,0-0.2,0-0.3,0.1c0,0,0,0-0.1,0c-0.1,0-0.1,0.1-0.2,0.1c0,0,0,0,0,0l-3.4,3.8c-0.3,0.3-0.3,0.8,0.1,1.1   c0.3,0.3,0.8,0.2,1.1-0.1l2.1-2.4l0,10.2c0,0.4,0.3,0.8,0.8,0.8c0.4,0,0.8-0.3,0.8-0.8l0-10.2l2.1,2.4c0.1,0.2,0.4,0.3,0.6,0.3   c0.2,0,0.4-0.1,0.5-0.2c0.3-0.3,0.3-0.8,0.1-1.1L64.6,114.1z"/><path d="M108.4,109.1c0.2,0,0.4-0.1,0.5-0.2c0.3-0.3,0.3-0.8,0-1.1l-7.2-7.2l3.2,0.2c0.4,0,0.8-0.3,0.8-0.7c0-0.4-0.3-0.8-0.7-0.8   L99.8,99c0,0,0,0,0,0c-0.1,0-0.1,0-0.2,0c0,0-0.1,0-0.1,0c-0.1,0-0.2,0.1-0.3,0.2c-0.1,0.1-0.1,0.2-0.2,0.3c0,0,0,0.1,0,0.1   c0,0.1,0,0.1,0,0.2c0,0,0,0,0,0l0.3,5.1c0,0.4,0.4,0.7,0.8,0.7c0,0,0,0,0,0c0.4,0,0.7-0.4,0.7-0.8l-0.2-3.2l7.2,7.2   C108,109,108.2,109.1,108.4,109.1z"/><path d="M126.7,63.2h-10.2l2.4-2.1c0.3-0.3,0.3-0.8,0.1-1.1c-0.3-0.3-0.8-0.3-1.1-0.1l-3.8,3.4c0,0,0,0,0,0   c-0.1,0.1-0.1,0.1-0.1,0.2c0,0,0,0,0,0.1c0,0.1-0.1,0.2-0.1,0.3c0,0.1,0,0.2,0.1,0.3c0,0,0,0,0,0.1c0,0.1,0.1,0.1,0.1,0.2   c0,0,0,0,0,0l3.8,3.4c0.1,0.1,0.3,0.2,0.5,0.2c0.2,0,0.4-0.1,0.6-0.3c0.3-0.3,0.2-0.8-0.1-1.1l-2.4-2.1h10.2c0.4,0,0.8-0.3,0.8-0.8   C127.5,63.6,127.2,63.2,126.7,63.2z"/><path d="M99.1,28.4C99.1,28.4,99.1,28.5,99.1,28.4c0.1,0.2,0.1,0.3,0.2,0.3c0.1,0.1,0.2,0.1,0.2,0.2c0.1,0,0.2,0.1,0.3,0.1   c0,0,0,0,0,0l5.1-0.3c0.4,0,0.7-0.4,0.7-0.8c0-0.4-0.4-0.7-0.8-0.7l-3.2,0.2l7.2-7.2c0.3-0.3,0.3-0.8,0-1.1c-0.3-0.3-0.8-0.3-1.1,0   l-7.2,7.2l0.2-3.2c0-0.4-0.3-0.8-0.7-0.8c-0.4,0-0.8,0.3-0.8,0.7L99,28.2c0,0,0,0,0,0C99,28.3,99,28.3,99.1,28.4z"/></g><text x="0" y="143" fill="#ffffff" font-size="5px" font-weight="bold" font-family="'Helvetica Neue', Helvetica, Arial-Unicode, Arial, Sans-serif">Created by Creative Stall</text><text x="0" y="148" fill="#ffffff" font-size="5px" font-weight="bold" font-family="'Helvetica Neue', Helvetica, Arial-Unicode, Arial, Sans-serif">from the Noun Project</text></svg>