<svg xmlns="http://www.w3.org/2000/svg" xmlns:xlink="http://www.w3.org/1999/xlink" version="1.1" x="0px" y="0px" viewBox="0 0 512 640" enable-background="new 0 0 512 512" xml:space="preserve" fill="#ffffff"><path d="M456.4,230.1l53.6-27.2l-40.8-22.5l33.9-14l-6.3-15.1l-38.7,16l16.2-56l-55.9,28.3L404,189.8l-12.4,5.1  C362.5,132,302.2,86.4,230.8,77.8V43.6h16.3V27.2h-16.3h-49h-16.3v16.3h16.3v34.2c-38.9,4.7-74.5,20.3-103.6,43.8l-24-24l-34.7,34.7  L44,156.7C17.7,191.1,2,234,2,280.5c0,112.6,91.6,204.2,204.2,204.2s204.2-91.6,204.2-204.2c0-24.8-4.4-48.6-12.6-70.6l12.5-5.2  L456.4,230.1z M432.2,151.1l16-8.1L437,181.4l38,20.9l-18.3,9.3l-36.3-20L432.2,151.1z M198.1,43.6h16.3v32.9  c-2.7-0.1-5.4-0.2-8.2-0.2c-2.7,0-5.5,0.1-8.2,0.2V43.6z M42.6,132.3l11.6-11.6l11.7,11.7c-4,3.7-7.8,7.6-11.4,11.7L42.6,132.3z   M394.2,280.5c0,103.6-84.3,187.9-187.9,187.9S18.3,384.1,18.3,280.5S102.6,92.6,206.2,92.6c75.3,0,140.3,44.5,170.3,108.5  l-22.8,9.4c-26.3-55.2-82.4-93.5-147.5-93.5c-90.1,0-163.4,73.3-163.4,163.4s73.3,163.4,163.4,163.4s163.4-73.3,163.4-163.4  c0-19.3-3.5-37.7-9.7-54.8l22.8-9.5C390.2,236.3,394.2,257.9,394.2,280.5z M206.2,239.7c-22.5,0-40.8,18.3-40.8,40.9  s18.3,40.8,40.8,40.8s40.8-18.3,40.8-40.8c0-2.7-0.3-5.2-0.8-7.8l98.6-40.8c4.5,12.8,7.2,26.3,8,40.4H337v16.3h15.9  c-1.9,34.4-15.6,65.6-37.2,89.7l-11.2-11.2l-11.6,11.6l11.2,11.2c-24.1,21.6-55.3,35.3-89.7,37.2v-15.9h-16.3v15.9  c-34.4-1.9-65.6-15.6-89.7-37.2l11.2-11.2L108,367.2l-11.2,11.2c-21.6-24.1-35.3-55.3-37.2-89.7h15.9v-16.3H59.6  c1.9-34.4,15.6-65.6,37.2-89.7l11.2,11.2l11.6-11.6l-11.2-11.2c24.1-21.6,55.3-35.3,89.7-37.2v15.9h16.3v-15.9  c34.4,1.9,65.6,15.6,89.7,37.2l-11.2,11.2l11.6,11.6l11.2-11.2c9.2,10.2,16.9,21.7,22.9,34.2l-98.5,40.8  C232.7,246.8,220.3,239.7,206.2,239.7z M230.8,280.5c0,13.5-11,24.5-24.5,24.5c-13.5,0-24.5-11-24.5-24.5c0-13.5,11-24.5,24.5-24.5  C219.8,256,230.8,267,230.8,280.5z"/><text x="0" y="527" fill="#0399cd" font-size="5px" font-weight="bold" font-family="'Helvetica Neue', Helvetica, Arial-Unicode, Arial, Sans-serif">Created by Icon Fair</text><text x="0" y="532" fill="#0399cd" font-size="5px" font-weight="bold" font-family="'Helvetica Neue', Helvetica, Arial-Unicode, Arial, Sans-serif">from the Noun Project</text></svg>