<svg xmlns="http://www.w3.org/2000/svg" xmlns:xlink="http://www.w3.org/1999/xlink" fill="#613d7c" version="1.1" x="0px" y="0px" viewBox="0 0 128 160" enable-background="new 0 0 128 128" xml:space="preserve"><g><path d="M59.2,72.6c-0.4-0.2-0.8-0.1-1,0.2c-0.2,0.4-0.1,0.8,0.2,1l6,3.7l-6,3.7c-0.4,0.2-0.5,0.7-0.2,1c0.1,0.2,0.4,0.4,0.6,0.4   c0.1,0,0.3,0,0.4-0.1l7-4.4c0.2-0.1,0.4-0.4,0.4-0.6c0-0.3-0.1-0.5-0.4-0.6L59.2,72.6z"/><path d="M44.9,72.8c-0.2-0.4-0.7-0.5-1-0.2l-7,4.4c-0.2,0.1-0.4,0.4-0.4,0.6c0,0.3,0.1,0.5,0.4,0.6l7,4.4c0.1,0.1,0.3,0.1,0.4,0.1   c0.3,0,0.5-0.1,0.6-0.4c0.2-0.4,0.1-0.8-0.2-1l-6-3.7l6-3.7C45,73.7,45.1,73.2,44.9,72.8z"/><path d="M54.3,70.2c-0.4-0.1-0.8,0-1,0.4l-5,13.2c-0.1,0.4,0,0.8,0.4,1c0.1,0,0.2,0,0.3,0c0.3,0,0.6-0.2,0.7-0.5l5-13.2   C54.9,70.8,54.7,70.3,54.3,70.2z"/><path d="M62.9,32.3l3.3,1.8c-0.2,1-0.4,2.1-0.4,3.1H21.5c-2.9,0-5.3,2.4-5.3,5.3v51.2c0,0.4,0.3,0.8,0.8,0.8h95.3   c0.4,0,0.8-0.3,0.8-0.8V42.6c0-2.9-2.4-5.3-5.3-5.3H100c0-0.9-0.1-1.8-0.3-2.7l3.4-1.8c0.3-0.2,0.5-0.6,0.4-0.9l-1.4-3.5   c-0.1-0.4-0.5-0.5-0.9-0.4l-3.6,1c-1.3-2.1-3.1-3.9-5.1-5.3l1.1-3.6c0.1-0.4-0.1-0.8-0.4-0.9l-3.5-1.5c-0.4-0.2-0.8,0-1,0.3   l-1.8,3.3c-2.4-0.6-4.9-0.6-7.4-0.1l-1.8-3.4c-0.2-0.3-0.6-0.5-0.9-0.4l-3.5,1.4c-0.4,0.1-0.6,0.5-0.4,0.9l1,3.6   c-2.1,1.3-3.9,3.1-5.3,5.1l-3.6-1.1c-0.4-0.1-0.8,0.1-0.9,0.4l-1.5,3.5C62.4,31.7,62.5,32.1,62.9,32.3z M111.5,42.6v50.5H17.7V42.6   c0-2.1,1.7-3.8,3.8-3.8h44.3c0,0.9,0.1,1.8,0.3,2.7l-3.4,1.8c-0.3,0.2-0.5,0.6-0.4,0.9l1.4,3.5c0.1,0.4,0.5,0.5,0.9,0.4l3.6-1   c1.3,2.1,3.1,3.9,5.1,5.3L72.3,56c-0.1,0.4,0.1,0.8,0.4,0.9l3.5,1.5c0.4,0.2,0.8,0,1-0.3l1.8-3.3c2.4,0.6,4.9,0.6,7.4,0.1l1.8,3.4   c0.1,0.3,0.4,0.4,0.7,0.4c0.1,0,0.2,0,0.3-0.1l3.5-1.4c0.4-0.1,0.6-0.5,0.4-0.9l-1-3.6c2.1-1.3,3.9-3.1,5.3-5.1l3.6,1.1   c0.4,0.1,0.8-0.1,0.9-0.4l1.5-3.5c0.2-0.4,0-0.8-0.3-1l-3.3-1.8c0.2-1,0.4-2.1,0.4-3.1h7.6C109.7,38.8,111.5,40.5,111.5,42.6z    M65.1,29.1l3.5,1.1c0.3,0.1,0.7,0,0.9-0.3c1.4-2.2,3.3-4.1,5.6-5.4c0.3-0.2,0.4-0.5,0.3-0.9l-1-3.5l2.2-0.9l1.7,3.3   c0.2,0.3,0.5,0.5,0.8,0.4c2.6-0.6,5.2-0.6,7.8,0.1c0.3,0.1,0.7-0.1,0.9-0.4l1.8-3.2l2.2,0.9l-1.1,3.5c-0.1,0.3,0,0.7,0.3,0.9   c2.2,1.4,4.1,3.3,5.4,5.6c0.2,0.3,0.5,0.4,0.9,0.3l3.5-1l0.9,2.2l-3.3,1.7c-0.3,0.2-0.5,0.5-0.4,0.8c0.6,2.6,0.6,5.2-0.1,7.8   c-0.1,0.3,0.1,0.7,0.4,0.9l3.2,1.8l-0.9,2.2l-3.5-1.1c-0.3-0.1-0.7,0-0.9,0.3c-1.4,2.2-3.3,4.1-5.6,5.4c-0.3,0.2-0.4,0.5-0.3,0.9   l1,3.5l-2.2,0.9l-1.7-3.3c-0.1-0.3-0.4-0.4-0.7-0.4c-0.1,0-0.1,0-0.2,0c-2.6,0.6-5.2,0.6-7.8-0.1c-0.3-0.1-0.7,0.1-0.9,0.4   l-1.8,3.2L74,55.8l1.1-3.5c0.1-0.3,0-0.7-0.3-0.9c-2.2-1.4-4.1-3.3-5.4-5.6c-0.2-0.3-0.5-0.4-0.9-0.3l-3.5,1L64,44.3l3.3-1.7   c0.3-0.2,0.5-0.5,0.4-0.8c-0.3-1.2-0.4-2.4-0.4-3.6c0,0,0-0.1,0-0.1c0-0.1,0-0.1,0-0.1c0-1.3,0.2-2.6,0.5-3.9   c0.1-0.3-0.1-0.7-0.4-0.9l-3.2-1.8L65.1,29.1z"/><path d="M78.3,48.8c1.5,0.6,3.1,0.9,4.6,0.9c4.5,0,8.9-2.7,10.8-7.1c1.2-2.9,1.3-6.1,0.1-9c-1.2-2.9-3.4-5.2-6.3-6.4   c-2.9-1.2-6.1-1.3-9-0.1c-2.9,1.2-5.2,3.4-6.4,6.3c-1.2,2.9-1.3,6.1-0.1,9C73.2,45.3,75.4,47.6,78.3,48.8z M73.5,34   c1.1-2.5,3.1-4.4,5.6-5.5c1.2-0.5,2.5-0.7,3.8-0.7c1.4,0,2.7,0.3,4,0.8c2.5,1.1,4.4,3.1,5.5,5.6c1,2.5,1,5.3-0.1,7.8   c-2.2,5.2-8.2,7.6-13.4,5.4c-2.5-1.1-4.4-3.1-5.5-5.6C72.4,39.3,72.4,36.5,73.5,34z"/><path d="M109.9,10.8c0.1,0.1,0.3,0.2,0.5,0.2c0.2,0,0.4-0.1,0.5-0.2c0.3-0.3,0.3-0.8,0-1.1l-1.6-1.6c-0.3-0.3-0.8-0.3-1.1,0   c-0.3,0.3-0.3,0.8,0,1.1L109.9,10.8z"/><path d="M115.1,16c0.1,0.1,0.3,0.2,0.5,0.2s0.4-0.1,0.5-0.2c0.3-0.3,0.3-0.8,0-1.1l-1.6-1.6c-0.3-0.3-0.8-0.3-1.1,0   c-0.3,0.3-0.3,0.8,0,1.1L115.1,16z"/><path d="M108.8,16.2c0.2,0,0.4-0.1,0.5-0.2l1.6-1.6c0.3-0.3,0.3-0.8,0-1.1c-0.3-0.3-0.8-0.3-1.1,0l-1.6,1.6c-0.3,0.3-0.3,0.8,0,1.1   C108.4,16.1,108.6,16.2,108.8,16.2z"/><path d="M114,11c0.2,0,0.4-0.1,0.5-0.2l1.6-1.6c0.3-0.3,0.3-0.8,0-1.1c-0.3-0.3-0.8-0.3-1.1,0l-1.6,1.6c-0.3,0.3-0.3,0.8,0,1.1   C113.6,10.9,113.8,11,114,11z"/><path d="M1.8,111.3c-0.3-0.3-0.8-0.3-1.1,0c-0.3,0.3-0.3,0.8,0,1.1l1.6,1.6c0.1,0.1,0.3,0.2,0.5,0.2c0.2,0,0.4-0.1,0.5-0.2   c0.3-0.3,0.3-0.8,0-1.1L1.8,111.3z"/><path d="M7,116.5c-0.3-0.3-0.8-0.3-1.1,0c-0.3,0.3-0.3,0.8,0,1.1l1.6,1.6c0.1,0.1,0.3,0.2,0.5,0.2c0.2,0,0.4-0.1,0.5-0.2   c0.3-0.3,0.3-0.8,0-1.1L7,116.5z"/><path d="M2.3,116.5l-1.6,1.6c-0.3,0.3-0.3,0.8,0,1.1c0.1,0.1,0.3,0.2,0.5,0.2c0.2,0,0.4-0.1,0.5-0.2l1.6-1.6c0.3-0.3,0.3-0.8,0-1.1   C3.1,116.2,2.6,116.2,2.3,116.5z"/><path d="M7.5,111.3l-1.6,1.6c-0.3,0.3-0.3,0.8,0,1.1c0.1,0.1,0.3,0.2,0.5,0.2c0.2,0,0.4-0.1,0.5-0.2l1.6-1.6c0.3-0.3,0.3-0.8,0-1.1   C8.3,111,7.8,111,7.5,111.3z"/><path d="M4.7,39.8c0.4,0,0.8-0.3,0.8-0.8V27.3c0-0.4-0.3-0.8-0.8-0.8s-0.8,0.3-0.8,0.8V39C3.9,39.4,4.2,39.8,4.7,39.8z"/><path d="M4.7,49.5c0.4,0,0.8-0.3,0.8-0.8v-4.2c0-0.4-0.3-0.8-0.8-0.8s-0.8,0.3-0.8,0.8v4.2C3.9,49.2,4.2,49.5,4.7,49.5z"/><path d="M121.4,63.7c0.4,0,0.8-0.3,0.8-0.8V51.1c0-0.4-0.3-0.8-0.8-0.8c-0.4,0-0.8,0.3-0.8,0.8v11.8   C120.6,63.3,121,63.7,121.4,63.7z"/><path d="M121.4,73.4c0.4,0,0.8-0.3,0.8-0.8v-4.2c0-0.4-0.3-0.8-0.8-0.8c-0.4,0-0.8,0.3-0.8,0.8v4.2C120.6,73.1,121,73.4,121.4,73.4   z"/><path d="M56.8,20.1c1.9,0,3.5-1.6,3.5-3.5s-1.6-3.5-3.5-3.5c-1.9,0-3.5,1.6-3.5,3.5S54.8,20.1,56.8,20.1z M56.8,14.6   c1.1,0,2,0.9,2,2s-0.9,2-2,2c-1.1,0-2-0.9-2-2S55.7,14.6,56.8,14.6z"/><path d="M48.7,110.6c-1.9,0-3.5,1.6-3.5,3.5c0,1.9,1.6,3.5,3.5,3.5s3.5-1.6,3.5-3.5C52.2,112.1,50.6,110.6,48.7,110.6z M48.7,116.1   c-1.1,0-2-0.9-2-2c0-1.1,0.9-2,2-2c1.1,0,2,0.9,2,2C50.7,115.2,49.8,116.1,48.7,116.1z"/><path d="M8.2,80.2c0-1.9-1.6-3.5-3.5-3.5s-3.5,1.6-3.5,3.5c0,1.9,1.6,3.5,3.5,3.5S8.2,82.2,8.2,80.2z M4.7,82.2c-1.1,0-2-0.9-2-2   c0-1.1,0.9-2,2-2c1.1,0,2,0.9,2,2C6.7,81.3,5.8,82.2,4.7,82.2z"/><path d="M20.7,18.1c0,0.4,0.3,0.8,0.8,0.8h15.4c0.4,0,0.8-0.3,0.8-0.8c0-0.4-0.3-0.8-0.8-0.8H21.5C21.1,17.3,20.7,17.7,20.7,18.1z"/><path d="M11.4,18.8h5c0.4,0,0.8-0.3,0.8-0.8c0-0.4-0.3-0.8-0.8-0.8h-5c-0.4,0-0.8,0.3-0.8,0.8C10.7,18.5,11,18.8,11.4,18.8z"/><path d="M11.4,13.6h10.8c0.4,0,0.8-0.3,0.8-0.8S22.6,12,22.2,12H11.4c-0.4,0-0.8,0.3-0.8,0.8S11,13.6,11.4,13.6z"/><path d="M26.8,13.6h3.5c0.4,0,0.8-0.3,0.8-0.8S30.7,12,30.3,12h-3.5c-0.4,0-0.8,0.3-0.8,0.8S26.4,13.6,26.8,13.6z"/><path d="M117.4,114.1c0-0.4-0.3-0.8-0.8-0.8h-15.4c-0.4,0-0.8,0.3-0.8,0.8c0,0.4,0.3,0.8,0.8,0.8h15.4   C117.1,114.8,117.4,114.5,117.4,114.1z"/><path d="M121,114.1c0,0.4,0.3,0.8,0.8,0.8h5c0.4,0,0.8-0.3,0.8-0.8c0-0.4-0.3-0.8-0.8-0.8h-5C121.3,113.3,121,113.6,121,114.1z"/><path d="M126.7,118.6H116c-0.4,0-0.8,0.3-0.8,0.8c0,0.4,0.3,0.8,0.8,0.8h10.8c0.4,0,0.8-0.3,0.8-0.8   C127.5,118.9,127.2,118.6,126.7,118.6z"/><path d="M111.4,118.6h-3.5c-0.4,0-0.8,0.3-0.8,0.8c0,0.4,0.3,0.8,0.8,0.8h3.5c0.4,0,0.8-0.3,0.8-0.8   C112.1,118.9,111.8,118.6,111.4,118.6z"/><path d="M121.8,101.5l1.1-1.9c0.2-0.4,0.3-0.9,0-1.3c-0.2-0.4-0.7-0.7-1.1-0.7H7.4c-0.5,0-0.9,0.3-1.1,0.7c-0.2,0.4-0.2,0.9,0,1.3   l1.1,1.9c1.9,3.2,5.5,5.2,9.2,5.2h95.9C116.3,106.7,119.8,104.7,121.8,101.5z M8.6,100.7l-0.9-1.6h113.7l-0.9,1.6   c-1.7,2.8-4.7,4.5-8,4.5H16.6C13.4,105.2,10.3,103.5,8.6,100.7z"/><path d="M74.1,66.6H28.9c-1.8,0-3.2,1.4-3.2,3.2v15.3c0,1.8,1.4,3.2,3.2,3.2h45.2c1.8,0,3.2-1.4,3.2-3.2V69.8   C77.4,68.1,75.9,66.6,74.1,66.6z M75.8,85.1c0,0.9-0.8,1.7-1.7,1.7H28.9c-0.9,0-1.7-0.8-1.7-1.7V69.8c0-0.9,0.8-1.7,1.7-1.7h45.2   c0.9,0,1.7,0.8,1.7,1.7V85.1z"/></g><text x="0" y="143" fill="#ffffff" font-size="5px" font-weight="bold" font-family="'Helvetica Neue', Helvetica, Arial-Unicode, Arial, Sans-serif">Created by Creative Stall</text><text x="0" y="148" fill="#ffffff" font-size="5px" font-weight="bold" font-family="'Helvetica Neue', Helvetica, Arial-Unicode, Arial, Sans-serif">from the Noun Project</text></svg>