<svg xmlns="http://www.w3.org/2000/svg" xmlns:xlink="http://www.w3.org/1999/xlink" version="1.1" x="0px" y="0px" viewBox="85 81.061 30 47.3475" enable-background="new 85 81.061 30 37.878" xml:space="preserve" fill="#ffffff"><rect x="97.346" y="117.76" width="5.294" height="1.18"/><path d="M107.691,105.13l0.078-0.069c0.076-0.068,0.15-0.137,0.228-0.199l0.021-0.018c2.469-2.258,3.885-5.464,3.885-8.795  c0-6.566-5.342-11.909-11.909-11.909c-6.566,0-11.909,5.343-11.909,11.909c0,3.333,1.415,6.539,3.882,8.795l0.022,0.02  c0.074,0.062,0.148,0.127,0.224,0.193l0.08,0.068c1.562,1.424,2.504,3.398,2.656,5.486h-0.912v1.181h0.943h0.002v1.203h-0.945v1.179  h0.945v1.204h-0.945v1.179h11.913v-1.179h-0.944v-1.204h0.944v-1.179h-0.944v-1.203h0.944v-1.181h-0.914  C105.188,108.521,106.132,106.546,107.691,105.13z M93.076,104.244l-0.086-0.075c-0.081-0.069-0.16-0.14-0.239-0.206  c-2.217-2.031-3.488-4.916-3.488-7.915c0-5.917,4.813-10.729,10.729-10.729c5.917,0,10.73,4.813,10.73,10.729  c0,2.997-1.272,5.882-3.492,7.916c-0.082,0.069-0.164,0.144-0.248,0.218l-0.08,0.071c-1.811,1.644-2.906,3.935-3.061,6.358h-3.26  v-2.555h-1.18v2.555H96.14C95.986,108.191,94.892,105.9,93.076,104.244z M103.825,115.378H96.16v-1.204h7.665V115.378z   M96.161,112.995v-1.203h7.665v1.203H96.161z"/><path d="M102.604,104.434c0.894,0,1.689-0.514,2.076-1.283c0.094,0.012,0.188,0.017,0.282,0.017c1.246,0,2.267-0.985,2.319-2.219  c0.351-0.111,0.674-0.308,0.939-0.573c0.699-0.698,0.867-1.721,0.484-2.578c0.495-0.435,0.794-1.07,0.794-1.748  c0-0.679-0.3-1.315-0.797-1.75c0.373-0.854,0.205-1.89-0.481-2.575c-0.267-0.267-0.59-0.461-0.939-0.572  c-0.053-1.235-1.073-2.223-2.319-2.223c-0.095,0-0.188,0.005-0.282,0.018c-0.388-0.77-1.185-1.284-2.076-1.284  c-1.28,0-2.321,1.042-2.321,2.321v12.129C100.281,103.395,101.322,104.434,102.604,104.434z M101.46,89.984  c0-0.629,0.513-1.142,1.144-1.142c0.543,0,1.017,0.389,1.123,0.924c0.033,0.173,0.145,0.322,0.299,0.405  c0.156,0.083,0.341,0.092,0.504,0.025c0.141-0.059,0.285-0.087,0.434-0.087c0.629,0,1.143,0.512,1.143,1.143  c0,0.084-0.01,0.171-0.028,0.258c-0.038,0.171,0.002,0.349,0.108,0.487c0.106,0.138,0.271,0.222,0.443,0.229  c0.286,0.011,0.557,0.129,0.76,0.333c0.416,0.415,0.445,1.09,0.067,1.538c-0.118,0.141-0.165,0.329-0.125,0.508  c0.04,0.18,0.161,0.331,0.328,0.408c0.401,0.186,0.661,0.593,0.661,1.037c0,0.444-0.26,0.851-0.66,1.036  c-0.167,0.077-0.289,0.228-0.329,0.407c-0.04,0.18,0.006,0.368,0.125,0.508c0.384,0.456,0.354,1.118-0.067,1.541  c-0.203,0.204-0.475,0.323-0.761,0.334c-0.175,0.007-0.338,0.092-0.444,0.23c-0.105,0.138-0.146,0.317-0.106,0.49  c0.019,0.082,0.028,0.168,0.028,0.252c0,0.629-0.514,1.142-1.143,1.142c-0.15,0-0.295-0.029-0.428-0.085  c-0.163-0.069-0.35-0.063-0.508,0.021c-0.156,0.083-0.268,0.232-0.303,0.407c-0.104,0.534-0.576,0.924-1.121,0.924  c-0.631,0-1.144-0.513-1.144-1.142V89.984z"/><path d="M99.718,102.113V89.984c0-1.279-1.041-2.321-2.32-2.321c-0.896,0-1.693,0.514-2.078,1.284  c-0.094-0.012-0.188-0.018-0.282-0.018c-1.247,0-2.267,0.988-2.319,2.223c-0.351,0.111-0.673,0.305-0.941,0.572  c-0.684,0.685-0.852,1.721-0.48,2.574c-0.498,0.435-0.798,1.071-0.798,1.75c0,0.678,0.299,1.314,0.795,1.748  c-0.381,0.856-0.213,1.878,0.485,2.579c0.267,0.266,0.589,0.459,0.939,0.57c0.053,1.234,1.073,2.221,2.319,2.221  c0.095,0,0.188-0.005,0.281-0.018c0.386,0.771,1.183,1.285,2.079,1.285C98.677,104.434,99.718,103.395,99.718,102.113z   M98.539,102.113c0,0.629-0.512,1.142-1.14,1.142c-0.546,0-1.018-0.389-1.122-0.923c-0.034-0.175-0.145-0.324-0.302-0.408  c-0.086-0.045-0.182-0.068-0.277-0.068c-0.078,0-0.156,0.016-0.229,0.047c-0.135,0.057-0.279,0.086-0.43,0.086  c-0.629,0-1.142-0.512-1.142-1.143c0-0.086,0.009-0.171,0.028-0.252c0.039-0.172-0.001-0.35-0.107-0.489s-0.269-0.223-0.444-0.23  c-0.285-0.011-0.556-0.13-0.76-0.333c-0.421-0.422-0.45-1.085-0.067-1.542c0.118-0.141,0.164-0.329,0.124-0.508  c-0.04-0.179-0.162-0.33-0.329-0.407c-0.403-0.186-0.663-0.592-0.663-1.036c0-0.444,0.26-0.851,0.663-1.037  c0.167-0.078,0.289-0.228,0.329-0.407c0.04-0.18-0.006-0.367-0.125-0.508c-0.377-0.448-0.348-1.124,0.065-1.538  c0.206-0.204,0.476-0.323,0.761-0.333c0.174-0.007,0.337-0.091,0.444-0.229c0.107-0.138,0.147-0.316,0.109-0.487  c-0.019-0.085-0.028-0.172-0.028-0.258c0-0.63,0.513-1.143,1.142-1.143c0.146,0,0.292,0.03,0.435,0.088  c0.163,0.066,0.348,0.057,0.503-0.027c0.156-0.083,0.266-0.233,0.299-0.406c0.104-0.534,0.576-0.922,1.122-0.922  c0.628,0,1.14,0.512,1.14,1.142L98.539,102.113L98.539,102.113z"/><path d="M89.462,87.105l-0.899-0.764c-0.266,0.313-0.522,0.642-0.763,0.977l0.958,0.687C88.981,87.696,89.217,87.394,89.462,87.105z  "/><path d="M94.982,83.167l-0.428-1.099c-0.382,0.149-0.764,0.316-1.134,0.497l0.517,1.06C94.278,83.458,94.63,83.304,94.982,83.167z"/><path d="M92.934,84.167l-0.604-1.013c-0.354,0.211-0.703,0.439-1.037,0.678l0.686,0.96C92.286,84.572,92.607,84.362,92.934,84.167z"/><path d="M101.857,81.162c-0.407-0.05-0.822-0.084-1.233-0.101l-0.048,1.179c0.379,0.015,0.762,0.046,1.139,0.093L101.857,81.162z"/><path d="M91.078,85.493l-0.762-0.9c-0.313,0.266-0.621,0.547-0.912,0.838l0.833,0.834C90.505,85.998,90.788,85.738,91.078,85.493z"/><path d="M97.168,82.519l-0.24-1.155c-0.402,0.083-0.806,0.185-1.202,0.302l0.335,1.131C96.426,82.689,96.799,82.595,97.168,82.519z"/><path d="M99.434,82.24l-0.048-1.178c-0.413,0.017-0.828,0.05-1.235,0.101l0.145,1.17C98.67,82.287,99.053,82.255,99.434,82.24z"/><path d="M104.282,81.669c-0.394-0.118-0.798-0.22-1.201-0.304l-0.241,1.155c0.371,0.077,0.743,0.171,1.105,0.279L104.282,81.669z"/><path d="M111.248,88.016l0.959-0.686c-0.24-0.335-0.496-0.664-0.762-0.977l-0.899,0.763  C110.791,87.404,111.027,87.707,111.248,88.016z"/><path d="M113.247,92.097l1.131-0.335c-0.118-0.395-0.253-0.79-0.403-1.173l-1.098,0.429  C113.016,91.371,113.139,91.734,113.247,92.097z"/><path d="M112.418,89.974l1.059-0.519c-0.181-0.37-0.379-0.735-0.591-1.088l-1.012,0.604  C112.066,89.296,112.251,89.633,112.418,89.974z"/><path d="M106.591,82.571c-0.368-0.182-0.752-0.349-1.135-0.499l-0.431,1.099c0.354,0.138,0.705,0.292,1.047,0.459L106.591,82.571z"/><path d="M113.714,94.33l1.17-0.145c-0.05-0.409-0.118-0.82-0.202-1.223l-1.154,0.241C113.604,93.575,113.667,93.954,113.714,94.33z"/><path d="M108.717,83.841c-0.334-0.239-0.683-0.468-1.035-0.679l-0.605,1.012c0.326,0.195,0.648,0.405,0.955,0.626L108.717,83.841z"/><path d="M88.133,88.96l-1.012-0.605c-0.212,0.354-0.411,0.72-0.592,1.088l1.059,0.521C87.754,89.624,87.938,89.286,88.133,88.96z"/><path d="M110.605,85.442c-0.289-0.29-0.597-0.572-0.912-0.839l-0.762,0.9c0.291,0.246,0.572,0.506,0.84,0.773L110.605,85.442z"/><path d="M107.041,107.943l0.602,1.016c0.354-0.21,0.703-0.438,1.039-0.676l-0.685-0.961  C107.688,107.542,107.366,107.751,107.041,107.943z"/><path d="M112.861,101.115l1.099,0.433c0.151-0.384,0.288-0.778,0.406-1.172l-1.13-0.34  C113.128,100.398,113.002,100.762,112.861,101.115z"/><path d="M113.521,98.931l1.152,0.245c0.085-0.4,0.154-0.812,0.207-1.222l-1.171-0.148C113.662,98.184,113.6,98.562,113.521,98.931z"/><path d="M114.988,95.48l-0.002-0.06l-1.18,0.046l0.004,0.059c0.006,0.179,0.01,0.357,0.01,0.535c0,0.203-0.004,0.406-0.014,0.607  l1.178,0.052C114.995,96.5,115,96.28,115,96.06C115,95.868,114.996,95.674,114.988,95.48z"/><path d="M108.9,106.622l0.76,0.901c0.313-0.265,0.621-0.545,0.914-0.836l-0.832-0.836  C109.473,106.119,109.189,106.379,108.9,106.622z"/><path d="M91.257,108.238c0.334,0.24,0.683,0.47,1.036,0.682l0.607-1.012c-0.326-0.195-0.646-0.406-0.955-0.629L91.257,108.238z"/><path d="M110.52,105.014l0.896,0.766c0.268-0.313,0.523-0.641,0.766-0.975l-0.957-0.688  C111.002,104.423,110.766,104.727,110.52,105.014z"/><path d="M111.852,103.161l1.012,0.608c0.212-0.354,0.412-0.721,0.595-1.088l-1.058-0.522  C112.23,102.499,112.047,102.836,111.852,103.161z"/><path d="M86.745,99.973l-1.131,0.334c0.117,0.396,0.251,0.791,0.4,1.173l1.1-0.428C86.976,100.7,86.852,100.337,86.745,99.973z"/><path d="M86.179,96.038c0-0.194,0.003-0.387,0.012-0.58l-1.178-0.05C85.004,95.617,85,95.828,85,96.038  c0,0.192,0.003,0.385,0.011,0.556c0,0.02,0,0.04,0.001,0.06l1.177-0.082C86.182,96.393,86.179,96.215,86.179,96.038z"/><path d="M86.282,97.74l-1.171,0.142c0.05,0.408,0.117,0.82,0.201,1.223l1.155-0.239C86.39,98.494,86.328,98.115,86.282,97.74z"/><path d="M86.474,93.194l-1.154-0.242c-0.084,0.401-0.153,0.813-0.204,1.222l1.17,0.146C86.333,93.943,86.396,93.564,86.474,93.194z"/><path d="M87.569,102.098l-1.06,0.519c0.18,0.368,0.378,0.735,0.588,1.09l1.014-0.603C87.917,102.777,87.735,102.439,87.569,102.098z  "/><path d="M88.734,104.059l-0.96,0.686c0.238,0.335,0.494,0.663,0.76,0.979l0.901-0.762C89.189,104.671,88.954,104.367,88.734,104.059  z"/><path d="M87.126,91.009l-1.098-0.43c-0.151,0.386-0.287,0.78-0.404,1.172l1.13,0.337C86.862,91.727,86.988,91.364,87.126,91.009z"/><path d="M89.372,106.635c0.29,0.29,0.596,0.573,0.909,0.84l0.765-0.896c-0.29-0.246-0.572-0.508-0.839-0.775L89.372,106.635z"/><text x="85" y="133.93900000000002" fill="#0399cd" font-size="5px" font-weight="bold" font-family="'Helvetica Neue', Helvetica, Arial-Unicode, Arial, Sans-serif">Created by Maxim Basinski</text><text x="85" y="138.93900000000002" fill="#0399cd" font-size="5px" font-weight="bold" font-family="'Helvetica Neue', Helvetica, Arial-Unicode, Arial, Sans-serif">from the Noun Project</text></svg>