<svg xmlns="http://www.w3.org/2000/svg" xmlns:xlink="http://www.w3.org/1999/xlink" version="1.1" x="0px" y="0px" viewBox="85 87.175 30 32.06375" enable-background="new 85 87.175 30 25.651" xml:space="preserve" fill="#ffffff"><rect x="97.068" y="94.333" width="5.864" height="0.903"/><path d="M112.542,109.771V95.589c0-0.336-0.131-0.651-0.367-0.887c-0.237-0.238-0.555-0.369-0.892-0.369h-4.182v0.903h4.182  c0.096,0,0.186,0.037,0.254,0.104c0.064,0.066,0.102,0.154,0.102,0.249v14.183H88.361V95.589c0-0.094,0.036-0.182,0.106-0.25  c0.065-0.066,0.154-0.103,0.249-0.103h4.182v-0.903h-4.182c-0.338,0-0.654,0.132-0.887,0.367c-0.239,0.236-0.372,0.552-0.372,0.89  v14.182H85v1.527c0,0.409,0.159,0.793,0.449,1.081c0.289,0.288,0.673,0.446,1.079,0.446h26.945c0.407,0,0.791-0.159,1.08-0.446  c0.288-0.288,0.447-0.672,0.447-1.081v-1.527H112.542L112.542,109.771z M114.098,111.298c0,0.167-0.064,0.324-0.183,0.44  c-0.118,0.117-0.274,0.184-0.442,0.184H86.528c-0.167,0-0.324-0.064-0.442-0.184c-0.118-0.116-0.183-0.273-0.183-0.44v-0.624h28.195  V111.298z"/><rect x="106.122" y="103.021" width="0.903" height="0.901"/><rect x="92.976" y="103.021" width="0.903" height="0.901"/><path d="M100,98.506c-2.739,0-4.966,2.229-4.966,4.967s2.228,4.967,4.966,4.967c2.738,0,4.966-2.229,4.966-4.967  S102.739,98.506,100,98.506z M100,107.536c-2.241,0-4.063-1.823-4.063-4.063S97.76,99.41,100,99.41s4.063,1.822,4.063,4.063  S102.241,107.536,100,107.536z"/><path d="M100,101.014c-1.355,0-2.458,1.104-2.458,2.459c0,1.355,1.103,2.459,2.458,2.459c1.355,0,2.458-1.104,2.458-2.459  C102.458,102.118,101.355,101.014,100,101.014z M100,105.027c-0.858,0-1.555-0.697-1.555-1.555c0-0.859,0.697-1.557,1.555-1.557  c0.857,0,1.555,0.697,1.555,1.557C101.555,104.33,100.857,105.027,100,105.027z"/><path d="M92.01,92.091c1.355,0,2.458-1.103,2.458-2.458c0-1.356-1.103-2.458-2.458-2.458c-1.355,0-2.458,1.103-2.458,2.458  S90.655,92.091,92.01,92.091z M92.01,88.078c0.857,0,1.555,0.698,1.555,1.556c0,0.857-0.698,1.555-1.555,1.555  c-0.858,0-1.555-0.698-1.555-1.555C90.455,88.775,91.152,88.078,92.01,88.078z"/><path d="M107.99,92.091c1.355,0,2.459-1.103,2.459-2.458c0-1.356-1.104-2.458-2.459-2.458s-2.458,1.103-2.458,2.458  S106.635,92.091,107.99,92.091z M107.99,88.078c0.857,0,1.556,0.698,1.556,1.556c0,0.857-0.696,1.555-1.556,1.555  c-0.857,0-1.555-0.698-1.555-1.555C106.436,88.775,107.133,88.078,107.99,88.078z"/><circle cx="107.99" cy="89.633" r="0.451"/><circle cx="92.01" cy="89.633" r="0.451"/><circle cx="100" cy="103.472" r="0.452"/><rect x="104.646" y="94.174" transform="matrix(-0.8663 -0.4996 0.4996 -0.8663 148.8577 229.1442)" width="0.904" height="0.95"/><rect x="105.601" y="92.517" transform="matrix(-0.8657 -0.5005 0.5005 -0.8657 151.3217 226.5775)" width="0.902" height="0.949"/><rect x="102.72" y="97.492" transform="matrix(0.499 -0.8666 0.8666 0.499 -33.1776 138.4977)" width="0.951" height="0.903"/><rect x="103.694" y="95.808" transform="matrix(-0.8662 -0.4996 0.4996 -0.8662 146.2536 231.7218)" width="0.903" height="0.951"/><rect x="95.407" y="95.813" transform="matrix(0.8659 -0.5003 0.5003 0.8659 -35.3121 60.8702)" width="0.903" height="0.95"/><rect x="93.475" y="92.551" transform="matrix(0.4996 0.8662 -0.8662 0.4996 127.5738 -34.8476)" width="0.951" height="0.903"/><rect x="96.348" y="97.462" transform="matrix(0.866 -0.5 0.5 0.866 -36.0014 61.5264)" width="0.903" height="0.95"/><rect x="94.459" y="94.168" transform="matrix(0.8662 -0.4996 0.4996 0.8662 -34.5914 60.0798)" width="0.903" height="0.951"/><text x="85" y="127.826" fill="#0399cd" font-size="5px" font-weight="bold" font-family="'Helvetica Neue', Helvetica, Arial-Unicode, Arial, Sans-serif">Created by Maxim Basinski</text><text x="85" y="132.826" fill="#0399cd" font-size="5px" font-weight="bold" font-family="'Helvetica Neue', Helvetica, Arial-Unicode, Arial, Sans-serif">from the Noun Project</text></svg>